<?xml version="1.0" encoding="utf-8"?>
<!-- Generator: Adobe Illustrator 28.0.0, SVG Export Plug-In . SVG Version: 6.00 Build 0)  -->
<svg version="1.1" id="Layer_1" xmlns="http://www.w3.org/2000/svg" xmlns:xlink="http://www.w3.org/1999/xlink" x="0px" y="0px"
	 viewBox="0 0 148 54" style="enable-background:new 0 0 148 54;" xml:space="preserve">
<style type="text/css">
	.st0{fill:#FFFFFF;}
	.st1{fill-rule:evenodd;clip-rule:evenodd;fill:#FFFFFF;}
</style>
<g>
	<path class="st0" d="M55.2,34.6V15h5.3v3.4h0.2c0.4-1.2,1-2.1,1.8-2.8c0.8-0.6,1.8-0.9,2.9-0.9c0.3,0,0.6,0,0.9,0.1
		c0.3,0,0.6,0.1,0.8,0.1v4.8c-0.3-0.1-0.6-0.1-1.1-0.2c-0.5-0.1-0.9-0.1-1.2-0.1c-0.8,0-1.5,0.2-2.1,0.5c-0.6,0.3-1.1,0.8-1.5,1.4
		c-0.4,0.6-0.5,1.3-0.5,2.1v11.1H55.2z M77.9,35c-2,0-3.8-0.4-5.2-1.2c-1.4-0.8-2.6-2-3.3-3.5c-0.8-1.5-1.2-3.3-1.2-5.4
		c0-2,0.4-3.8,1.2-5.3c0.8-1.5,1.9-2.7,3.3-3.6c1.4-0.9,3.1-1.3,5-1.3c1.3,0,2.5,0.2,3.6,0.6c1.1,0.4,2.1,1,2.9,1.9
		c0.8,0.8,1.5,1.9,2,3.1c0.5,1.2,0.7,2.7,0.7,4.4v1.5H70.4v-3.4h11.5c0-0.8-0.2-1.5-0.5-2.1c-0.3-0.6-0.8-1.1-1.4-1.4
		c-0.6-0.3-1.3-0.5-2.1-0.5c-0.8,0-1.6,0.2-2.2,0.6c-0.6,0.4-1.1,0.9-1.5,1.5c-0.4,0.6-0.5,1.3-0.5,2.1v3.2c0,1,0.2,1.8,0.5,2.5
		c0.4,0.7,0.9,1.3,1.5,1.6c0.7,0.4,1.5,0.6,2.4,0.6c0.6,0,1.2-0.1,1.7-0.3c0.5-0.2,0.9-0.4,1.3-0.8c0.4-0.3,0.6-0.8,0.8-1.3l5,0.3
		c-0.3,1.2-0.8,2.3-1.6,3.2c-0.8,0.9-1.8,1.6-3,2.1C81,34.8,79.6,35,77.9,35z M96.1,35c-1.3,0-2.4-0.2-3.3-0.7c-1-0.4-1.8-1.1-2.3-2
		c-0.6-0.9-0.8-2-0.8-3.2c0-1.1,0.2-2,0.6-2.7c0.4-0.7,0.9-1.3,1.6-1.8c0.7-0.5,1.5-0.8,2.4-1c0.9-0.2,1.8-0.4,2.8-0.5
		c1.1-0.1,2.1-0.2,2.8-0.3c0.7-0.1,1.2-0.3,1.5-0.5c0.3-0.2,0.5-0.5,0.5-0.9v-0.1c0-0.8-0.3-1.4-0.8-1.9c-0.5-0.4-1.2-0.7-2.1-0.7
		c-1,0-1.8,0.2-2.3,0.7c-0.6,0.4-1,1-1.2,1.6l-5-0.4c0.3-1.2,0.8-2.2,1.5-3.1c0.8-0.9,1.7-1.6,2.9-2c1.2-0.5,2.6-0.7,4.1-0.7
		c1.1,0,2.1,0.1,3.1,0.4c1,0.3,1.9,0.7,2.7,1.2c0.8,0.5,1.4,1.2,1.9,2.1c0.5,0.8,0.7,1.8,0.7,3v13.2H102v-2.7h-0.2
		c-0.3,0.6-0.7,1.2-1.3,1.6c-0.5,0.5-1.2,0.8-1.9,1.1C97.9,34.9,97.1,35,96.1,35z M97.7,31.2c0.8,0,1.5-0.2,2.1-0.5
		c0.6-0.3,1.1-0.8,1.4-1.3c0.3-0.5,0.5-1.2,0.5-1.9v-2.1c-0.2,0.1-0.4,0.2-0.7,0.3c-0.3,0.1-0.6,0.2-1,0.2c-0.4,0.1-0.7,0.1-1.1,0.2
		c-0.4,0.1-0.7,0.1-1,0.1c-0.6,0.1-1.2,0.2-1.7,0.4c-0.5,0.2-0.8,0.5-1.1,0.8c-0.3,0.3-0.4,0.8-0.4,1.3c0,0.7,0.3,1.3,0.8,1.7
		C96.1,31,96.8,31.2,97.7,31.2z M111.4,41.6V15h5.4v3.3h0.2c0.2-0.5,0.6-1.1,1-1.6c0.5-0.6,1.1-1,1.8-1.4c0.7-0.4,1.7-0.6,2.8-0.6
		c1.4,0,2.8,0.4,4,1.1c1.2,0.7,2.2,1.9,2.9,3.4c0.7,1.5,1.1,3.4,1.1,5.6c0,2.2-0.4,4-1.1,5.5c-0.7,1.5-1.7,2.6-2.9,3.4
		c-1.2,0.8-2.5,1.2-4,1.2c-1.1,0-2-0.2-2.7-0.5c-0.7-0.3-1.3-0.8-1.8-1.3c-0.5-0.5-0.8-1.1-1.1-1.6h-0.2v10.1H111.4z M116.7,24.8
		c0,1.2,0.2,2.2,0.5,3.1c0.3,0.9,0.8,1.5,1.4,2c0.6,0.5,1.4,0.7,2.2,0.7c0.9,0,1.6-0.2,2.2-0.7c0.6-0.5,1.1-1.2,1.4-2
		c0.3-0.9,0.5-1.9,0.5-3c0-1.1-0.2-2.1-0.5-3c-0.3-0.9-0.8-1.5-1.4-2c-0.6-0.5-1.4-0.7-2.3-0.7c-0.9,0-1.6,0.2-2.2,0.7
		c-0.6,0.5-1.1,1.1-1.4,2C116.9,22.6,116.7,23.6,116.7,24.8z M134.2,34.6V15h5.4v19.6H134.2z M136.9,12.5c-0.8,0-1.5-0.3-2.1-0.8
		c-0.6-0.5-0.9-1.2-0.9-2c0-0.8,0.3-1.4,0.9-1.9c0.6-0.5,1.3-0.8,2.1-0.8c0.8,0,1.5,0.3,2.1,0.8c0.6,0.5,0.9,1.2,0.9,1.9
		c0,0.8-0.3,1.4-0.9,2C138.4,12.2,137.7,12.5,136.9,12.5z"/>
	<path class="st1" d="M22.3,20.8c-0.2,6.1,6.2,12.6,6.2,12.6s6.8-6.3,6.6-12.6C34.9,14.5,22.5,14.7,22.3,20.8z M28.5,24.6
		c1.2,0,2.2-1,2.2-2.2c0-1.2-1-2.2-2.2-2.2s-2.2,1-2.2,2.2C26.3,23.6,27.3,24.6,28.5,24.6z"/>
	<path class="st1" d="M28.8,1.6c-2.6,0-4.9,1.8-5.3,4.4c-0.1,0.7-0.2,1.4-0.2,2C22.5,8.4,21.7,8.7,21,9c-0.3-0.2-0.6-0.5-0.9-0.7
		c-2.1-1.6-5.1-1.3-7,0.6c-1.9,1.9-2.2,4.8-0.6,6.9c0.2,0.3,0.5,0.6,0.7,0.9c-0.3,0.6-0.6,1.2-0.8,1.8c-0.7,0.1-1.4,0.1-2.1,0.2
		c-2.6,0.3-4.5,2.7-4.5,5.3c0,2.6,1.8,4.9,4.4,5.3c0.7,0.1,1.4,0.2,2.1,0.2c0.2,0.7,0.5,1.4,0.9,2c-0.2,0.3-0.5,0.6-0.7,0.8
		c-1.6,2.1-1.3,5.1,0.6,7c1.9,1.9,4.8,2.2,6.9,0.6c0.3-0.2,0.6-0.5,1-0.8c0.7,0.3,1.5,0.7,2.2,0.9c0.1,0.6,0.1,1.3,0.2,2
		c0.3,2.6,2.7,4.5,5.3,4.5c2.6,0,4.9-1.8,5.3-4.4c0.1-0.7,0.2-1.4,0.2-2.1c0.8-0.3,1.5-0.6,2.3-1c0.3,0.3,0.7,0.6,1,0.8
		c2.1,1.6,5.1,1.3,7-0.6c1.9-1.9,2.2-4.8,0.6-6.9c-0.3-0.4-0.6-0.8-0.9-1.2c0.3-0.6,0.5-1.2,0.7-1.8c0.7-0.1,1.3-0.1,2-0.2
		c2.6-0.3,4.5-2.7,4.5-5.3c0-2.6-1.8-4.9-4.4-5.3c-0.7-0.1-1.4-0.2-2.1-0.2c-0.2-0.5-0.4-1.1-0.7-1.6c0.3-0.4,0.6-0.7,0.9-1.1
		c1.6-2.1,1.3-5.1-0.6-7c-1.9-1.9-4.8-2.2-6.9-0.6c-0.4,0.3-0.7,0.5-1.1,0.8c-0.7-0.4-1.5-0.7-2.3-1c-0.1-0.7-0.1-1.3-0.2-2
		C33.8,3.5,31.5,1.6,28.8,1.6z M28.5,36c6.6,0,11.9-5.3,11.9-11.9s-5.3-11.9-11.9-11.9s-11.9,5.3-11.9,11.9S21.9,36,28.5,36z"/>
</g>
<g>
	<path class="st0" d="M39.9,50.1c-0.3,0-0.5,0-0.7-0.1c-0.2-0.1-0.4-0.2-0.5-0.4c-0.1-0.2-0.2-0.4-0.2-0.7c0-0.2,0-0.4,0.1-0.6
		c0.1-0.2,0.2-0.3,0.4-0.4c0.2-0.1,0.3-0.2,0.5-0.2s0.4-0.1,0.6-0.1c0.3,0,0.5,0,0.6-0.1c0.2,0,0.3-0.1,0.3-0.1
		c0.1,0,0.1-0.1,0.1-0.2v0c0-0.2-0.1-0.4-0.2-0.5s-0.3-0.2-0.5-0.2c-0.3,0-0.4,0.1-0.6,0.2c-0.1,0.1-0.2,0.2-0.3,0.4l-1-0.1
		c0.1-0.3,0.2-0.5,0.4-0.7s0.4-0.3,0.6-0.4c0.3-0.1,0.5-0.1,0.8-0.1c0.2,0,0.4,0,0.6,0.1c0.2,0,0.4,0.1,0.6,0.2
		c0.2,0.1,0.3,0.3,0.4,0.5c0.1,0.2,0.2,0.4,0.2,0.7V50h-1v-0.6h0c-0.1,0.1-0.1,0.2-0.3,0.3s-0.3,0.2-0.4,0.3
		C40.4,50,40.2,50.1,39.9,50.1z M40.2,49.3c0.2,0,0.4,0,0.5-0.1s0.3-0.2,0.3-0.3c0.1-0.1,0.1-0.3,0.1-0.4v-0.5c0,0-0.1,0.1-0.2,0.1
		c-0.1,0-0.2,0-0.3,0.1c-0.1,0-0.2,0-0.3,0c-0.1,0-0.2,0-0.2,0c-0.2,0-0.3,0.1-0.4,0.1c-0.1,0-0.2,0.1-0.3,0.2s-0.1,0.2-0.1,0.3
		c0,0.2,0.1,0.3,0.2,0.4C39.8,49.3,40,49.3,40.2,49.3z"/>
	<path class="st0" d="M45,50v-5.8h1v2.2h0c0.1-0.1,0.1-0.2,0.2-0.3c0.1-0.1,0.2-0.2,0.4-0.3s0.4-0.1,0.6-0.1c0.3,0,0.6,0.1,0.9,0.3
		c0.3,0.2,0.5,0.4,0.6,0.8c0.2,0.3,0.2,0.7,0.2,1.2c0,0.5-0.1,0.9-0.2,1.2c-0.2,0.3-0.4,0.6-0.6,0.8c-0.3,0.2-0.6,0.3-0.9,0.3
		c-0.2,0-0.5,0-0.6-0.1c-0.2-0.1-0.3-0.2-0.4-0.3c-0.1-0.1-0.2-0.2-0.2-0.3H46V50H45z M46,47.8c0,0.3,0,0.5,0.1,0.7
		c0.1,0.2,0.2,0.4,0.3,0.5c0.2,0.1,0.3,0.2,0.6,0.2c0.2,0,0.4-0.1,0.6-0.2c0.2-0.1,0.3-0.3,0.3-0.5c0.1-0.2,0.1-0.5,0.1-0.7
		c0-0.3,0-0.5-0.1-0.7c-0.1-0.2-0.2-0.4-0.3-0.5s-0.3-0.2-0.6-0.2c-0.2,0-0.4,0.1-0.6,0.2s-0.3,0.3-0.3,0.5C46,47.3,46,47.5,46,47.8
		z"/>
	<path class="st0" d="M49.8,50v-4.3h1v0.7h0c0.1-0.3,0.2-0.4,0.4-0.6c0.2-0.1,0.4-0.2,0.7-0.2c0.1,0,0.1,0,0.2,0c0.1,0,0.1,0,0.2,0
		v0.9c0,0-0.1,0-0.2,0c-0.1,0-0.2,0-0.3,0c-0.2,0-0.4,0-0.5,0.1c-0.1,0.1-0.3,0.2-0.3,0.3c-0.1,0.1-0.1,0.3-0.1,0.5V50H49.8z"/>
	<path class="st0" d="M54,50.1c-0.3,0-0.5,0-0.7-0.1c-0.2-0.1-0.4-0.2-0.5-0.4c-0.1-0.2-0.2-0.4-0.2-0.7c0-0.2,0-0.4,0.1-0.6
		c0.1-0.2,0.2-0.3,0.4-0.4c0.2-0.1,0.3-0.2,0.5-0.2s0.4-0.1,0.6-0.1c0.3,0,0.5,0,0.6-0.1c0.2,0,0.3-0.1,0.3-0.1
		c0.1,0,0.1-0.1,0.1-0.2v0c0-0.2-0.1-0.4-0.2-0.5s-0.3-0.2-0.5-0.2c-0.3,0-0.4,0.1-0.6,0.2c-0.1,0.1-0.2,0.2-0.3,0.4l-1-0.1
		c0.1-0.3,0.2-0.5,0.4-0.7s0.4-0.3,0.6-0.4c0.3-0.1,0.5-0.1,0.8-0.1c0.2,0,0.4,0,0.6,0.1c0.2,0,0.4,0.1,0.6,0.2
		c0.2,0.1,0.3,0.3,0.4,0.5c0.1,0.2,0.2,0.4,0.2,0.7V50h-1v-0.6h0c-0.1,0.1-0.1,0.2-0.3,0.3s-0.3,0.2-0.4,0.3
		C54.4,50,54.2,50.1,54,50.1z M54.2,49.3c0.2,0,0.4,0,0.5-0.1s0.3-0.2,0.3-0.3c0.1-0.1,0.1-0.3,0.1-0.4v-0.5c0,0-0.1,0.1-0.2,0.1
		c-0.1,0-0.2,0-0.3,0.1c-0.1,0-0.2,0-0.3,0c-0.1,0-0.2,0-0.2,0c-0.2,0-0.3,0.1-0.4,0.1c-0.1,0-0.2,0.1-0.3,0.2s-0.1,0.2-0.1,0.3
		c0,0.2,0.1,0.3,0.2,0.4C53.8,49.3,54,49.3,54.2,49.3z"/>
	<path class="st0" d="M58.1,47.4V50h-1v-4.3h1v0.7h0.1c0.1-0.2,0.3-0.4,0.5-0.6s0.5-0.2,0.8-0.2c0.3,0,0.6,0.1,0.8,0.2
		c0.2,0.1,0.4,0.3,0.5,0.6s0.2,0.5,0.2,0.9V50h-1v-2.6c0-0.3-0.1-0.5-0.2-0.7s-0.4-0.2-0.6-0.2c-0.2,0-0.3,0-0.5,0.1
		s-0.2,0.2-0.3,0.3C58.2,47,58.1,47.2,58.1,47.4z"/>
	<path class="st0" d="M63.4,50.1c-0.3,0-0.6-0.1-0.9-0.3c-0.3-0.2-0.5-0.4-0.6-0.8c-0.2-0.3-0.2-0.7-0.2-1.2c0-0.5,0.1-0.9,0.2-1.2
		c0.2-0.3,0.4-0.6,0.6-0.8c0.3-0.2,0.6-0.3,0.9-0.3c0.3,0,0.5,0,0.6,0.1s0.3,0.2,0.4,0.3c0.1,0.1,0.2,0.2,0.2,0.3h0v-2.2h1V50h-1
		v-0.7h-0.1c-0.1,0.1-0.1,0.2-0.2,0.3c-0.1,0.1-0.2,0.2-0.4,0.3C63.9,50,63.7,50.1,63.4,50.1z M63.7,49.2c0.2,0,0.4-0.1,0.6-0.2
		c0.2-0.1,0.3-0.3,0.3-0.5s0.1-0.5,0.1-0.7s0-0.5-0.1-0.7c-0.1-0.2-0.2-0.4-0.3-0.5s-0.3-0.2-0.6-0.2c-0.2,0-0.4,0.1-0.6,0.2
		s-0.3,0.3-0.3,0.5c-0.1,0.2-0.1,0.4-0.1,0.7c0,0.3,0,0.5,0.1,0.7c0.1,0.2,0.2,0.4,0.3,0.5C63.3,49.2,63.5,49.2,63.7,49.2z"/>
	<path class="st0" d="M70.4,50.1c-0.4,0-0.8-0.1-1.1-0.3c-0.3-0.2-0.6-0.4-0.7-0.8c-0.2-0.3-0.3-0.7-0.3-1.2c0-0.4,0.1-0.8,0.3-1.2
		c0.2-0.3,0.4-0.6,0.7-0.8c0.3-0.2,0.7-0.3,1.1-0.3s0.8,0.1,1.1,0.3c0.3,0.2,0.6,0.4,0.7,0.8c0.2,0.3,0.3,0.7,0.3,1.2
		c0,0.4-0.1,0.8-0.3,1.2c-0.2,0.3-0.4,0.6-0.7,0.8C71.2,50,70.8,50.1,70.4,50.1z M70.4,49.2c0.2,0,0.4-0.1,0.6-0.2
		c0.2-0.1,0.3-0.3,0.3-0.5c0.1-0.2,0.1-0.5,0.1-0.7c0-0.3,0-0.5-0.1-0.7c-0.1-0.2-0.2-0.4-0.3-0.5c-0.2-0.1-0.3-0.2-0.6-0.2
		c-0.2,0-0.4,0.1-0.6,0.2c-0.2,0.1-0.3,0.3-0.3,0.5c-0.1,0.2-0.1,0.5-0.1,0.7c0,0.3,0,0.5,0.1,0.7c0.1,0.2,0.2,0.4,0.3,0.5
		C70,49.2,70.2,49.2,70.4,49.2z"/>
	<path class="st0" d="M75.4,45.6v0.8h-2.6v-0.8H75.4z M73.5,50v-4.8c0-0.3,0.1-0.5,0.2-0.7c0.1-0.2,0.3-0.3,0.5-0.4
		c0.2-0.1,0.4-0.1,0.7-0.1c0.2,0,0.3,0,0.5,0s0.2,0.1,0.3,0.1l-0.2,0.8c0,0-0.1,0-0.2,0c-0.1,0-0.1,0-0.2,0c-0.2,0-0.3,0-0.4,0.1
		c-0.1,0.1-0.1,0.2-0.1,0.4V50H73.5z"/>
	<path class="st0" d="M79.8,50h-2.2v-5.8h2.2c0.6,0,1.1,0.1,1.5,0.3c0.4,0.2,0.8,0.6,1,1c0.2,0.4,0.4,1,0.4,1.6s-0.1,1.1-0.4,1.6
		c-0.2,0.4-0.6,0.8-1,1C80.9,49.9,80.4,50,79.8,50z M79.1,48.6h0.6c0.3,0,0.5,0,0.7-0.1c0.2-0.1,0.4-0.3,0.5-0.5
		c0.1-0.2,0.2-0.5,0.2-0.9c0-0.4-0.1-0.7-0.2-0.9c-0.1-0.2-0.3-0.4-0.5-0.5c-0.2-0.1-0.5-0.1-0.8-0.1h-0.6V48.6z"/>
	<path class="st0" d="M84.5,50.1c-0.3,0-0.5,0-0.7-0.1c-0.2-0.1-0.4-0.2-0.5-0.4c-0.1-0.2-0.2-0.4-0.2-0.7c0-0.2,0-0.4,0.1-0.6
		s0.2-0.3,0.3-0.4s0.3-0.2,0.5-0.2s0.4-0.1,0.6-0.1c0.2,0,0.4,0,0.6-0.1c0.1,0,0.3-0.1,0.3-0.1s0.1-0.1,0.1-0.2v0
		c0-0.1,0-0.2-0.1-0.3c-0.1-0.1-0.2-0.1-0.3-0.1c-0.1,0-0.3,0-0.4,0.1s-0.1,0.2-0.2,0.3h-1.4c0-0.3,0.1-0.5,0.3-0.7
		c0.2-0.2,0.4-0.4,0.7-0.5c0.3-0.1,0.6-0.2,1.1-0.2c0.3,0,0.6,0,0.8,0.1c0.2,0.1,0.5,0.2,0.6,0.3c0.2,0.1,0.3,0.3,0.4,0.5
		s0.1,0.4,0.1,0.6v3h-1.5v-0.6h0c-0.1,0.2-0.2,0.3-0.3,0.4c-0.1,0.1-0.3,0.2-0.4,0.2S84.7,50.1,84.5,50.1z M85,49.1
		c0.1,0,0.2,0,0.3-0.1c0.1,0,0.2-0.1,0.3-0.2c0.1-0.1,0.1-0.2,0.1-0.3v-0.4c0,0-0.1,0-0.1,0c0,0-0.1,0-0.1,0c-0.1,0-0.1,0-0.2,0
		c-0.1,0-0.1,0-0.2,0c-0.1,0-0.2,0-0.3,0.1c-0.1,0-0.1,0.1-0.2,0.2s-0.1,0.1-0.1,0.2c0,0.1,0,0.2,0.1,0.3C84.8,49,84.9,49.1,85,49.1
		z"/>
	<path class="st0" d="M90.4,45.6v1.1h-2.9v-1.1H90.4z M88.1,44.6h1.6v4c0,0.1,0,0.1,0,0.2c0,0,0.1,0.1,0.1,0.1c0,0,0.1,0,0.2,0
		c0,0,0.1,0,0.2,0c0.1,0,0.1,0,0.1,0l0.2,1.1c-0.1,0-0.2,0-0.3,0.1s-0.3,0-0.5,0.1c-0.4,0-0.7,0-0.9-0.1c-0.2-0.1-0.4-0.2-0.5-0.4
		c-0.1-0.2-0.2-0.5-0.2-0.8V44.6z"/>
	<path class="st0" d="M92.1,50.1c-0.3,0-0.5,0-0.7-0.1c-0.2-0.1-0.4-0.2-0.5-0.4c-0.1-0.2-0.2-0.4-0.2-0.7c0-0.2,0-0.4,0.1-0.6
		s0.2-0.3,0.3-0.4s0.3-0.2,0.5-0.2s0.4-0.1,0.6-0.1c0.2,0,0.4,0,0.6-0.1c0.1,0,0.3-0.1,0.3-0.1s0.1-0.1,0.1-0.2v0
		c0-0.1,0-0.2-0.1-0.3c-0.1-0.1-0.2-0.1-0.3-0.1c-0.1,0-0.3,0-0.4,0.1s-0.1,0.2-0.2,0.3h-1.4c0-0.3,0.1-0.5,0.3-0.7
		c0.2-0.2,0.4-0.4,0.7-0.5c0.3-0.1,0.6-0.2,1.1-0.2c0.3,0,0.6,0,0.8,0.1c0.2,0.1,0.5,0.2,0.6,0.3c0.2,0.1,0.3,0.3,0.4,0.5
		s0.1,0.4,0.1,0.6v3h-1.5v-0.6h0c-0.1,0.2-0.2,0.3-0.3,0.4c-0.1,0.1-0.3,0.2-0.4,0.2S92.3,50.1,92.1,50.1z M92.6,49.1
		c0.1,0,0.2,0,0.3-0.1c0.1,0,0.2-0.1,0.3-0.2c0.1-0.1,0.1-0.2,0.1-0.3v-0.4c0,0-0.1,0-0.1,0c0,0-0.1,0-0.1,0c-0.1,0-0.1,0-0.2,0
		c-0.1,0-0.1,0-0.2,0c-0.1,0-0.2,0-0.3,0.1c-0.1,0-0.1,0.1-0.2,0.2s-0.1,0.1-0.1,0.2c0,0.1,0,0.2,0.1,0.3
		C92.4,49,92.5,49.1,92.6,49.1z"/>
	<path class="st0" d="M95.4,50v-5.8h4.2v1.3H97v1h2.4v1.3H97v1h2.6V50H95.4z"/>
	<path class="st0" d="M101.8,47.5V50h-1.6v-4.3h1.5v0.8h0c0.1-0.3,0.3-0.5,0.5-0.6c0.2-0.2,0.5-0.2,0.8-0.2c0.3,0,0.6,0.1,0.8,0.2
		s0.4,0.3,0.5,0.6c0.1,0.2,0.2,0.5,0.2,0.8V50H103v-2.4c0-0.2-0.1-0.4-0.2-0.5c-0.1-0.1-0.3-0.2-0.5-0.2c-0.1,0-0.2,0-0.3,0.1
		c-0.1,0.1-0.2,0.1-0.2,0.2S101.8,47.4,101.8,47.5z"/>
	<path class="st0" d="M107.3,51.7c-0.4,0-0.8-0.1-1.1-0.2c-0.3-0.1-0.6-0.3-0.7-0.5s-0.3-0.5-0.3-0.7h1.5c0,0.1,0.1,0.2,0.1,0.2
		s0.1,0.1,0.2,0.1s0.2,0,0.3,0c0.2,0,0.4,0,0.5-0.1s0.2-0.3,0.2-0.5v-0.7h0c-0.1,0.1-0.1,0.3-0.3,0.4c-0.1,0.1-0.3,0.2-0.4,0.2
		c-0.2,0.1-0.3,0.1-0.5,0.1c-0.3,0-0.6-0.1-0.9-0.2c-0.3-0.1-0.5-0.4-0.6-0.7c-0.2-0.3-0.2-0.7-0.2-1.2c0-0.5,0.1-1,0.2-1.3
		c0.2-0.3,0.4-0.6,0.6-0.7c0.3-0.2,0.5-0.2,0.8-0.2c0.2,0,0.4,0,0.6,0.1c0.2,0.1,0.3,0.2,0.4,0.3c0.1,0.1,0.2,0.3,0.2,0.4h0v-0.8
		h1.6V50c0,0.4-0.1,0.7-0.3,0.9c-0.2,0.3-0.5,0.5-0.8,0.6C108.2,51.6,107.8,51.7,107.3,51.7z M107.4,48.8c0.1,0,0.3,0,0.4-0.1
		c0.1-0.1,0.2-0.2,0.2-0.3c0.1-0.2,0.1-0.3,0.1-0.5c0-0.2,0-0.4-0.1-0.6c-0.1-0.2-0.1-0.3-0.2-0.4c-0.1-0.1-0.2-0.1-0.4-0.1
		c-0.1,0-0.3,0-0.4,0.1c-0.1,0.1-0.2,0.2-0.2,0.4c-0.1,0.2-0.1,0.3-0.1,0.6s0,0.4,0.1,0.5c0.1,0.1,0.1,0.3,0.2,0.3
		C107.1,48.8,107.2,48.8,107.4,48.8z"/>
	<path class="st0" d="M110.2,50v-4.3h1.6V50H110.2z M111,45.2c-0.2,0-0.4-0.1-0.5-0.2c-0.2-0.1-0.2-0.3-0.2-0.5s0.1-0.4,0.2-0.5
		c0.2-0.1,0.3-0.2,0.5-0.2c0.2,0,0.4,0.1,0.5,0.2c0.1,0.1,0.2,0.3,0.2,0.5s-0.1,0.4-0.2,0.5C111.4,45.1,111.2,45.2,111,45.2z"/>
	<path class="st0" d="M114,47.5V50h-1.6v-4.3h1.5v0.8h0c0.1-0.3,0.3-0.5,0.5-0.6c0.2-0.2,0.5-0.2,0.8-0.2c0.3,0,0.6,0.1,0.8,0.2
		s0.4,0.3,0.5,0.6c0.1,0.2,0.2,0.5,0.2,0.8V50h-1.6v-2.4c0-0.2-0.1-0.4-0.2-0.5c-0.1-0.1-0.3-0.2-0.5-0.2c-0.1,0-0.2,0-0.3,0.1
		c-0.1,0.1-0.2,0.1-0.2,0.2S114,47.4,114,47.5z"/>
	<path class="st0" d="M119.5,50.1c-0.5,0-0.9-0.1-1.2-0.3c-0.3-0.2-0.6-0.4-0.8-0.8s-0.3-0.7-0.3-1.2c0-0.4,0.1-0.8,0.3-1.2
		c0.2-0.3,0.4-0.6,0.8-0.8s0.7-0.3,1.2-0.3c0.3,0,0.6,0.1,0.9,0.2c0.3,0.1,0.5,0.2,0.7,0.4s0.3,0.4,0.4,0.7s0.2,0.6,0.2,0.9v0.4
		h-3.9v-0.9h2.4c0-0.1,0-0.2-0.1-0.3c-0.1-0.1-0.1-0.2-0.2-0.2c-0.1-0.1-0.2-0.1-0.3-0.1c-0.1,0-0.2,0-0.3,0.1
		c-0.1,0.1-0.2,0.1-0.3,0.2c-0.1,0.1-0.1,0.2-0.1,0.3v0.9c0,0.1,0,0.3,0.1,0.4s0.1,0.2,0.3,0.3c0.1,0.1,0.2,0.1,0.4,0.1
		c0.1,0,0.2,0,0.3,0c0.1,0,0.2-0.1,0.2-0.1c0.1-0.1,0.1-0.1,0.1-0.2h1.4c0,0.3-0.2,0.6-0.3,0.8c-0.2,0.2-0.4,0.4-0.7,0.5
		C120.3,50,119.9,50.1,119.5,50.1z"/>
	<path class="st0" d="M123.4,49.2l0,0.3c0,0.2-0.1,0.5-0.1,0.7c-0.1,0.2-0.1,0.5-0.2,0.7c-0.1,0.2-0.1,0.4-0.2,0.5h-0.6
		c0-0.1,0.1-0.3,0.1-0.5c0-0.2,0.1-0.4,0.1-0.7c0-0.2,0.1-0.5,0.1-0.8l0-0.3H123.4z"/>
	<path class="st0" d="M126.3,50v-5.8h0.9v5h2.6V50H126.3z"/>
	<path class="st0" d="M130.7,50v-5.8h0.9v5h2.6V50H130.7z"/>
	<path class="st0" d="M139.6,46.1h-0.9c0-0.2-0.1-0.4-0.2-0.5s-0.2-0.3-0.3-0.4c-0.1-0.1-0.3-0.2-0.4-0.2s-0.3-0.1-0.5-0.1
		c-0.3,0-0.6,0.1-0.9,0.3c-0.3,0.2-0.5,0.4-0.6,0.7c-0.2,0.3-0.2,0.7-0.2,1.2c0,0.5,0.1,0.9,0.2,1.2c0.2,0.3,0.4,0.6,0.6,0.7
		c0.3,0.2,0.6,0.2,0.9,0.2c0.2,0,0.4,0,0.5-0.1c0.2,0,0.3-0.1,0.4-0.2c0.1-0.1,0.2-0.2,0.3-0.4c0.1-0.1,0.2-0.3,0.2-0.5l0.9,0
		c0,0.3-0.1,0.5-0.3,0.8c-0.1,0.2-0.3,0.4-0.5,0.6c-0.2,0.2-0.5,0.3-0.7,0.4c-0.3,0.1-0.6,0.1-0.9,0.1c-0.5,0-0.9-0.1-1.3-0.4
		c-0.4-0.2-0.7-0.6-0.9-1c-0.2-0.4-0.3-1-0.3-1.6c0-0.6,0.1-1.1,0.3-1.6c0.2-0.4,0.5-0.8,0.9-1c0.4-0.2,0.8-0.4,1.3-0.4
		c0.3,0,0.6,0,0.9,0.1s0.5,0.2,0.7,0.4c0.2,0.2,0.4,0.4,0.5,0.6S139.5,45.8,139.6,46.1z"/>
</g>
</svg>
