<svg width="731" height="1028" viewBox="0 0 731 1028" fill="none" xmlns="http://www.w3.org/2000/svg">
            <path
              fillRule="evenodd"
              clipRule="evenodd"
              d="M341.5 630C366.624 630 387 610.077 387 585.5C387 560.923 366.624 541 341.5 541C316.375 541 296 560.923 296 585.5C296 610.077 316.375 630 341.5 630Z"
              fill="#FFDDF7"
            />
            <path
              fillRule="evenodd"
              clipRule="evenodd"
              d="M325.845 560.409C325.305 555.541 323.685 550.779 321.165 546.532C318.605 542.26 315.191 538.563 311.136 535.672C310.956 535.541 310.776 535.4 310.583 535.276L310.017 534.903C309.632 534.656 309.259 534.396 308.873 534.174C308.475 533.944 308.089 533.71 307.69 533.485L306.482 532.85C304.85 532.033 303.161 531.336 301.429 530.764C299.682 530.212 297.899 529.779 296.093 529.471C294.28 529.19 292.441 529.034 290.603 529C288.777 528.996 286.938 529.104 285.113 529.35C283.287 529.617 281.487 530.007 279.713 530.522C277.951 531.059 276.228 531.722 274.557 532.501C272.893 533.292 271.291 534.205 269.761 535.231C269.35 535.523 268.925 535.795 268.514 536.102L267.318 537.024L266.148 538.003C265.762 538.334 265.402 538.687 265.029 539.029C263.567 540.431 262.221 541.949 261.005 543.57C260.722 543.982 260.414 544.385 260.131 544.805L259.295 546.077L258.524 547.386C258.279 547.822 258.061 548.279 257.816 548.725C256.904 550.531 256.147 552.411 255.553 554.345C252.789 563.241 253.766 573.14 258.061 581.377C258.729 582.694 259.514 583.944 260.324 585.168L260.979 586.064L261.301 586.511L261.648 586.943L262.342 587.806C262.574 588.089 262.818 588.361 263.062 588.639C263.538 589.202 264.065 589.72 264.579 590.253C264.837 590.523 265.107 590.763 265.377 591.019C265.647 591.27 265.904 591.532 266.187 591.771C266.752 592.247 267.305 592.747 267.897 593.189L268.771 593.871L269.671 594.514C270.224 594.925 270.815 595.275 271.394 595.65C271.677 595.842 271.985 596.001 272.281 596.175L273.181 596.685L274.107 597.152C274.415 597.305 274.724 597.469 275.045 597.603C275.675 597.877 276.292 598.179 276.948 598.414C279.52 599.426 282.194 600.146 284.92 600.574C285.37 600.64 285.807 600.689 286.257 600.747C286.475 600.772 286.694 600.806 286.926 600.826L287.594 600.877C288.031 600.905 288.481 600.954 288.931 600.964L290.268 600.995C290.487 601.004 290.718 601 290.937 600.991L291.606 600.973C292.056 600.96 292.493 600.954 292.943 600.91L294.28 600.803L295.604 600.63C297.366 600.367 299.127 600.011 300.824 599.482C302.534 598.962 304.206 598.345 305.8 597.57C309.872 595.647 313.535 592.956 316.588 589.645C319.572 586.407 321.903 582.623 323.453 578.501C324.148 576.652 324.713 574.737 325.125 572.797C325.51 570.858 325.768 568.891 325.768 566.952C325.78 566.764 325.78 566.588 325.768 566.427L325.729 565.982C325.713 565.764 325.683 565.547 325.639 565.332C325.549 564.999 325.433 564.864 325.266 564.895C325.099 564.926 324.868 565.382 324.662 565.994C324.469 566.609 324.225 567.372 324.135 568.06C323.848 569.923 323.431 571.764 322.888 573.569C322.733 574.019 322.605 574.477 322.45 574.926C322.283 575.373 322.129 575.824 321.975 576.278C321.795 576.723 321.628 577.172 321.448 577.624C321.268 578.074 321.075 578.518 320.882 578.973C319.018 583.343 316.086 587.328 312.409 590.519C309.396 593.134 305.956 595.21 302.239 596.658C300.156 597.455 298.021 598.078 295.81 598.467C293.611 598.856 291.349 599.01 289.073 598.876L287.028 598.767C284.889 598.595 282.774 598.203 280.715 597.597C280.368 597.509 280.034 597.392 279.7 597.28L278.684 596.944L277.694 596.559L277.205 596.366C277.041 596.298 276.878 596.227 276.717 596.152L275.74 595.718C275.418 595.569 275.11 595.401 274.788 595.243C274.158 594.935 273.541 594.57 272.937 594.222C272.615 594.053 272.332 593.849 272.024 593.664C271.728 593.47 271.432 593.291 271.137 593.085C270.571 592.672 269.967 592.284 269.427 591.837C269.144 591.617 268.861 591.403 268.591 591.181L267.794 590.489L267.382 590.144L266.997 589.78L266.238 589.051L265.467 588.26L265.081 587.864L264.721 587.451L263.988 586.626L263.307 585.769L262.959 585.34L262.625 584.896L261.982 584.008L261.378 583.09L261.069 582.63L260.787 582.158L260.234 581.21L259.719 580.238L259.462 579.751C259.372 579.587 259.308 579.419 259.218 579.253L258.755 578.256C258.614 577.918 258.485 577.576 258.344 577.236L258.138 576.726C258.074 576.556 258.022 576.38 257.958 576.208L257.598 575.168C257.495 574.819 257.392 574.464 257.302 574.112C257.238 573.905 257.174 573.698 257.122 573.491C257.058 573.284 257.019 573.074 256.968 572.866C256.865 572.449 256.749 572.037 256.672 571.62C256.582 571.202 256.492 570.786 256.415 570.369C256.364 570.162 256.338 569.953 256.299 569.742L256.209 569.113L256.106 568.483C256.081 568.272 256.068 568.06 256.042 567.849C256.003 567.426 255.952 567.003 255.914 566.578C255.888 565.726 255.823 564.87 255.875 564.008C255.926 561.981 256.068 559.901 256.286 557.949C256.351 557.403 256.492 556.76 256.634 556.165C257.071 554.487 257.636 552.844 258.292 551.24C258.983 549.646 259.773 548.097 260.658 546.602C260.838 546.323 261.005 546.042 261.172 545.762C261.249 545.623 261.327 545.479 261.417 545.343L261.686 544.934C261.866 544.663 262.047 544.39 262.239 544.12C262.432 543.85 262.651 543.597 262.857 543.338C263.808 542.204 264.824 541.148 265.865 540.113C266.405 539.611 266.932 539.09 267.485 538.613C267.768 538.372 268.038 538.117 268.321 537.883L269.182 537.176C270.738 535.903 272.538 534.896 274.313 533.955C276.603 532.746 279.028 531.812 281.538 531.174C284.046 530.525 286.617 530.186 289.201 530.096C295.154 529.877 301.159 531.181 306.456 533.787C308.77 534.913 310.93 536.34 312.923 537.961C314.903 539.592 316.716 541.419 318.4 543.368C318.889 543.911 319.326 544.515 319.776 545.122C319.995 545.423 320.2 545.749 320.406 546.065C320.612 546.387 320.83 546.703 321.01 547.04C321.203 547.373 321.396 547.706 321.576 548.04C321.769 548.376 321.936 548.726 322.103 549.066C322.463 549.746 322.759 550.457 323.068 551.146C323.85 552.976 324.469 554.872 324.919 556.81C325.369 558.744 325.665 560.713 325.755 562.695C325.793 563.039 325.806 563.383 325.832 563.741C325.858 564.101 325.896 564.477 325.961 564.89C326.025 563.285 326.025 561.866 325.845 560.409Z"
              fill="#FF88E4"
              fillOpacity="0.48"
            />
            <path
              fillRule="evenodd"
              clipRule="evenodd"
              d="M605.46 40.252C605.28 40.142 605.1 40.031 604.89 40C604.91 41.171 607.09 41.586 606.75 40.31C606.17 40.684 605.82 40.468 605.46 40.252ZM629.75 63.262C628.77 62.511 628.78 62.484 630.01 62.57C630.71 63.447 628.61 64.42 629.75 63.263V63.262ZM636.35 78.818C635.74 78.118 635.03 77.312 634.99 78.707C635.37 78.461 635.88 79.02 636.3 79.481C636.76 79.978 637.11 80.361 637.07 79.494C636.9 79.447 636.64 79.144 636.35 78.818ZM639.84 80.542C639.55 79.782 638.31 80.837 639.37 80.757C640.22 81.524 641.36 79.603 640.1 79.85C640.21 80.152 640.29 80.446 639.84 80.542ZM644.89 89.182C645.03 89.381 645.18 89.557 645.31 89.716V89.717C645.91 90.439 646.22 90.82 644.8 91.521C644.65 91.323 644.51 91.148 644.38 90.989C643.78 90.266 643.46 89.883 644.89 89.182ZM730.04 94.475C730.02 93.3 727.65 93.376 728.18 94.166C728.52 94.035 728.74 94.223 728.96 94.411C729.24 94.65 729.52 94.889 730.04 94.475ZM716.06 91C715.58 90.357 718.14 89.29 717.99 90.682C717.46 90.532 716.8 90.659 716.06 91ZM713.79 91.998C713.68 91.989 712.87 91.514 713.02 91.063C713.14 90.696 714.51 92.054 713.79 91.998ZM720 95.016C720.4 95.796 720.31 96.399 720.21 97L721.11 96.61L721.13 96.602L722 96.222L721.46 95.072C721.12 95.221 720.87 95.15 720.62 95.08C720.42 95.026 720.23 94.972 720 95.016ZM725 91.982C724.6 92.087 724.4 91.722 724.2 91.357C724.141 91.2399 724.074 91.1266 724 91.018C724.4 90.914 724.6 91.278 724.8 91.643C724.86 91.761 724.93 91.879 725 91.982Z"
              fill="#8E79FC"
              fillOpacity="0.48"
            />
            <path
              fillRule="evenodd"
              clipRule="evenodd"
              d="M301.007 543.85C120.007 784.397 -34.8195 640.599 -178.532 436.325L-289.394 551.055C-201.911 615.696 -115.514 692.887 -24.9497 720.764L-23.423 721.229C77.095 751.539 182.759 720.722 300.623 544.241L301.007 543.85Z"
              fill="url(#paint0_linear_138:3)"
            />
            <path
              opacity="0.5"
              fillRule="evenodd"
              clipRule="evenodd"
              d="M605.015 488.154C257.659 949.786 -39.4669 673.824 -315.265 281.803L-528.018 501.981C-360.131 626.034 -194.326 774.169 -20.5258 827.667L-17.5959 828.561C175.307 886.728 378.085 827.588 604.278 488.904L605.015 488.154Z"
              fill="url(#paint1_linear_138:3)"
            />
            <path
              opacity="0.72"
              fillRule="evenodd"
              clipRule="evenodd"
              d="M-10.0768 551.448C-8.80336 550.127 -7.48094 548.827 -6.2847 547.433C-4.40221 545.237 -2.02745 543.385 -0.686237 540.795C-0.586115 540.608 -0.352497 540.327 -0.168941 540.171C1.88668 538.392 3.22685 536.072 5.01964 534.105C5.72049 533.335 6.06152 532.815 5.16252 533.065C4.67547 533.2 5.14374 532.524 5.47122 532.118C6.74776 530.537 8.138 529.049 9.50528 527.551C12.3014 524.482 15.1455 521.444 17.6881 518.146C18.5319 517.054 19.4746 516.044 20.4237 515.035C24.075 511.134 27.7211 507.233 31.3589 503.321C36.0041 498.317 40.6461 493.312 45.2736 488.288C46.546 486.904 47.7579 485.447 49 484.022C48.8123 483.908 48.5338 484.261 48.3033 484.511C44.3204 488.725 40.3322 492.938 36.3618 497.172C31.1941 502.686 26.0566 508.242 20.8774 513.735C16.5169 518.365 12.1178 522.942 7.7271 527.52C7.16287 528.113 6.53604 528.706 5.952 529.132C4.77245 529.996 6.02189 528.623 5.78306 528.519C3.9183 529.85 2.24752 531.9 0.521465 533.679C-1.47053 535.728 -3.28104 537.955 -4.1425 540.275C-4.24449 540.513 -4.38235 540.734 -4.55133 540.93C-6.14597 542.782 -6.89794 544.582 -7.9878 546.413C-8.95355 548.036 -9.45414 549.555 -10.6775 551.219C-10.885 551.5 -11.0989 551.854 -10.9508 551.968C-10.762 552.104 -10.3897 551.781 -10.0768 551.448ZM4.0299 529.361C6.03232 526.604 8.36432 524.347 10.6296 521.954C12.8541 519.592 15.1048 517.272 17.3179 514.9C17.8936 514.286 18.6831 513.6 18.6038 512.632C16.2875 514.609 14.1203 516.544 12.1908 518.75C8.60003 522.869 4.6911 526.594 0.984527 530.568C-0.390056 532.035 -1.60194 533.356 -1.46532 535.208C0.637232 533.408 2.55311 531.39 4.0299 529.361ZM32.9243 498.442C34.739 496.735 36.5881 494.998 38.188 493.094C39.7211 491.274 41.9342 490.025 42.8791 487.695C35.5879 494.124 28.86 501.167 22.4157 508.543C24.4526 507.201 26.1984 505.443 27.9495 503.706C29.6589 502.01 31.1617 500.106 32.9243 498.442Z"
              fill="#B8ABFD"
            />
            <path
              fillRule="evenodd"
              clipRule="evenodd"
              d="M78.9999 644C95.5655 644 109 630.568 109 614C109 597.432 95.5655 584 78.9999 584C62.4343 584 48.9999 597.432 48.9999 614C48.9999 630.568 62.4343 644 78.9999 644Z"
              fill="url(#paint2_radial_138:3)"
            />
            <defs>
              <linearGradient id="paint0_linear_138:3" x1="-347.392" y1="530.791" x2="315.951" y2="600.848" gradientUnits="userSpaceOnUse">
                <stop stopColor="#4A6CF7" />
                <stop offset="1" stopColor="#4A6CF7" stopOpacity="0" />
              </linearGradient>
              <linearGradient id="paint1_linear_138:3" x1="-639.321" y1="463.093" x2="633.693" y2="597.539" gradientUnits="userSpaceOnUse">
                <stop stopColor="#4A6CF7" />
                <stop offset="1" stopColor="#4A6CF7" stopOpacity="0" />
              </linearGradient>
              <radialGradient id="paint2_radial_138:3" cx="0" cy="0" r="1" gradientUnits="userSpaceOnUse" gradientTransform="translate(78.9999 584) rotate(90) scale(60)">
                <stop stopColor="white" />
                <stop offset="0.569" stopColor="#F0F4FD" />
                <stop offset="0.993" stopColor="#D9E0F0" />
              </radialGradient>
            </defs>
          </svg>