<svg width="106" height="106" viewBox="0 0 106 106" fill="none" xmlns="http://www.w3.org/2000/svg">
<g filter="url(#filter0_f_1_64230)">
<rect x="10" y="10" width="86" height="86" rx="10" fill="#383E56"/>
<rect x="10" y="10" width="86" height="86" rx="10" stroke="url(#paint0_linear_1_64230)" stroke-width="4"/>
</g>
<rect x="10" y="8" width="86" height="86" rx="10" fill="#383E56" stroke="url(#paint1_linear_1_64230)" stroke-width="4"/>
<path d="M51.4421 47.0938H45.2205C45.1069 46.2888 44.8749 45.5739 44.5245 44.9489C44.1741 44.3144 43.7243 43.7746 43.1751 43.3295C42.6258 42.8845 41.9914 42.5436 41.2717 42.3068C40.5614 42.0701 39.7897 41.9517 38.9563 41.9517C37.4506 41.9517 36.1391 42.3258 35.0217 43.0739C33.9042 43.8125 33.0378 44.892 32.4222 46.3125C31.8067 47.7235 31.4989 49.4375 31.4989 51.4545C31.4989 53.5284 31.8067 55.2708 32.4222 56.6818C33.0472 58.0928 33.9184 59.1581 35.0359 59.8778C36.1533 60.5975 37.4459 60.9574 38.9137 60.9574C39.7376 60.9574 40.4999 60.8485 41.2006 60.6307C41.9109 60.4129 42.5406 60.0956 43.0898 59.679C43.6391 59.2528 44.0936 58.7367 44.4535 58.1307C44.8228 57.5246 45.0785 56.8333 45.2205 56.0568L51.4421 56.0852C51.2811 57.4205 50.8787 58.7083 50.2347 59.9489C49.6003 61.1799 48.7433 62.2831 47.6637 63.2585C46.5936 64.2244 45.3152 64.9915 43.8285 65.5597C42.3512 66.1184 40.6798 66.3977 38.8143 66.3977C36.2196 66.3977 33.8995 65.8106 31.854 64.6364C29.8181 63.4621 28.2082 61.7623 27.0245 59.5369C25.8503 57.3116 25.2631 54.6174 25.2631 51.4545C25.2631 48.2822 25.8597 45.5833 27.0529 43.358C28.2461 41.1326 29.8654 39.4375 31.9109 38.2727C33.9563 37.0985 36.2575 36.5114 38.8143 36.5114C40.4999 36.5114 42.0624 36.7481 43.5018 37.2216C44.9506 37.6951 46.2338 38.3864 47.3512 39.2955C48.4686 40.1951 49.3777 41.2983 50.0785 42.6051C50.7887 43.9119 51.2433 45.4081 51.4421 47.0938ZM75.1424 46.3125C74.9435 45.6212 74.6642 45.0104 74.3043 44.4801C73.9445 43.9403 73.5041 43.4858 72.9833 43.1165C72.4719 42.7377 71.8848 42.4489 71.2219 42.25C70.5685 42.0511 69.8441 41.9517 69.0487 41.9517C67.5619 41.9517 66.2551 42.321 65.1282 43.0597C64.0108 43.7983 63.1396 44.8731 62.5146 46.2841C61.8896 47.6856 61.5771 49.3996 61.5771 51.4261C61.5771 53.4527 61.8848 55.1761 62.5004 56.5966C63.1159 58.017 63.9871 59.1013 65.114 59.8494C66.2409 60.5881 67.5714 60.9574 69.1055 60.9574C70.4975 60.9574 71.686 60.7112 72.6708 60.2188C73.6651 59.7169 74.4227 59.0114 74.9435 58.1023C75.4738 57.1932 75.739 56.1184 75.739 54.8778L76.989 55.0625H69.489V50.4318H81.6623V54.0966C81.6623 56.6534 81.1225 58.8504 80.043 60.6875C78.9634 62.5152 77.4767 63.9261 75.5827 64.9205C73.6888 65.9053 71.5202 66.3977 69.0771 66.3977C66.3498 66.3977 63.954 65.7964 61.8896 64.5938C59.8252 63.3816 58.2153 61.6629 57.06 59.4375C55.9142 57.2027 55.3413 54.5511 55.3413 51.483C55.3413 49.125 55.6822 47.0227 56.364 45.1761C57.0553 43.3201 58.0212 41.7481 59.2617 40.4602C60.5022 39.1723 61.9464 38.1922 63.5941 37.5199C65.2418 36.8475 67.0269 36.5114 68.9492 36.5114C70.5969 36.5114 72.131 36.7528 73.5515 37.2358C74.9719 37.7093 76.2314 38.3816 77.3299 39.2528C78.4379 40.1241 79.3422 41.161 80.043 42.3636C80.7437 43.5568 81.1935 44.8731 81.3924 46.3125H75.1424Z" fill="white"/>
<defs>
<filter id="filter0_f_1_64230" x="0" y="0" width="106" height="106" filterUnits="userSpaceOnUse" color-interpolation-filters="sRGB">
<feFlood flood-opacity="0" result="BackgroundImageFix"/>
<feBlend mode="normal" in="SourceGraphic" in2="BackgroundImageFix" result="shape"/>
<feGaussianBlur stdDeviation="4" result="effect1_foregroundBlur_1_64230"/>
</filter>
<linearGradient id="paint0_linear_1_64230" x1="-7" y1="10" x2="59.949" y2="130.063" gradientUnits="userSpaceOnUse">
<stop stop-color="#FF873D"/>
<stop offset="0.252232" stop-color="#F07022" stop-opacity="0.79"/>
<stop offset="0.625" stop-color="#3DA2A3" stop-opacity="0.79"/>
<stop offset="0.957003" stop-color="#22ECF0"/>
</linearGradient>
<linearGradient id="paint1_linear_1_64230" x1="-7" y1="8" x2="59.949" y2="128.063" gradientUnits="userSpaceOnUse">
<stop stop-color="#FF873D"/>
<stop offset="0.252232" stop-color="#F07022" stop-opacity="0.79"/>
<stop offset="0.625" stop-color="#3DA2A3" stop-opacity="0.79"/>
<stop offset="0.957003" stop-color="#22ECF0"/>
</linearGradient>
</defs>
</svg>
