<svg width="83" height="83" viewBox="0 0 83 83" fill="none" xmlns="http://www.w3.org/2000/svg">
<path d="M78.1367 65.168H4.86328V20.5879C4.86328 15.6716 8.86301 11.6719 13.7793 11.6719H69.2207C74.137 11.6719 78.1367 15.6716 78.1367 20.5879V65.168Z" fill="url(#paint0_linear_1_64272)"/>
<path d="M58.4007 23.9056C58.481 23.2334 58.5215 22.5575 58.5215 21.8848C58.5215 21.2122 58.481 20.5362 58.4007 19.8639L61.6583 16.7141C62.4604 15.9384 62.6318 14.7165 62.0738 13.7501L58.8316 8.13449C58.2739 7.16831 57.1303 6.70549 56.0569 7.01253L51.685 8.2632C50.6039 7.45168 49.4393 6.77763 48.2027 6.24753L47.1012 1.84172C46.8306 0.759482 45.858 0 44.7422 0H38.2578C37.142 0 36.1694 0.759483 35.8988 1.84189L34.7973 6.2477C33.5605 6.77779 32.3961 7.45168 31.315 8.26336L26.9431 7.01269C25.8697 6.70549 24.7261 7.16848 24.1684 8.13465L20.9262 13.7503C20.3684 14.7166 20.5396 15.9386 21.3417 16.7143L24.5993 19.8641C24.519 20.5362 24.4785 21.2122 24.4785 21.8848C24.4785 22.5575 24.519 23.2334 24.5993 23.9056L21.3417 27.0554C20.5396 27.8311 20.3682 29.0531 20.9262 30.0194L24.1684 35.635C24.7262 36.6014 25.8699 37.0642 26.9431 36.757L31.315 35.5063C32.3961 36.3178 33.5607 36.9919 34.7973 37.522L35.8988 41.9278C36.1694 43.0101 37.142 43.7695 38.2578 43.7695H44.7422C45.858 43.7695 46.8306 43.01 47.1012 41.9276L48.2027 37.5218C49.4395 36.9917 50.6039 36.3178 51.685 35.5062L56.0569 36.7568C57.1303 37.064 58.2738 36.6011 58.8316 35.6349L62.0738 30.0193C62.6316 29.0529 62.4604 27.8309 61.6583 27.0552L58.4007 23.9056ZM41.5 26.748C38.814 26.748 36.6367 24.5708 36.6367 21.8848C36.6367 19.1988 38.814 17.0215 41.5 17.0215C44.186 17.0215 46.3633 19.1988 46.3633 21.8848C46.3633 24.5708 44.186 26.748 41.5 26.748ZM74.084 83H8.91602C8.27098 83 7.65254 82.7437 7.19668 82.2877L0.712309 75.8033C0.256133 75.3473 0 74.7289 0 74.084V67.5996C0 66.2567 1.08873 65.168 2.43164 65.168H80.5684C81.9113 65.168 83 66.2567 83 67.5996V74.084C83 74.7289 82.7439 75.3473 82.2877 75.8033L75.8033 82.2877C75.3475 82.7437 74.729 83 74.084 83ZM48.7949 65.168H43.9316V57.873C43.9316 57.0601 44.338 56.3008 45.0144 55.8498L54.9695 49.213C54.9079 48.8664 54.8739 48.5104 54.8739 48.1465C54.8739 44.7945 57.6009 42.0674 60.953 42.0674C64.3051 42.0674 67.0321 44.7945 67.0321 48.1465C67.0321 51.4984 64.3051 54.2256 60.953 54.2256C59.7438 54.2256 58.6168 53.8693 57.6689 53.2581L48.7949 59.1745V65.168ZM39.0684 65.168H34.2051V59.1745L25.3309 53.2583C24.383 53.8694 23.2562 54.2257 22.0469 54.2257C18.6948 54.2257 15.9678 51.4986 15.9678 48.1466C15.9678 44.7947 18.6948 42.0675 22.0469 42.0675C25.399 42.0675 28.126 44.7947 28.126 48.1466C28.126 48.5106 28.0921 48.8666 28.0303 49.2132L37.9855 55.8499C38.662 56.3007 39.0684 57.0601 39.0684 57.873V65.168Z" fill="url(#paint1_linear_1_64272)" fill-opacity="0.8"/>
<defs>
<linearGradient id="paint0_linear_1_64272" x1="41.5" y1="11.6719" x2="41.5" y2="65.168" gradientUnits="userSpaceOnUse">
<stop stop-color="#9E71FF"/>
<stop offset="1" stop-color="#7239EA"/>
</linearGradient>
<linearGradient id="paint1_linear_1_64272" x1="69.7376" y1="-68.3063" x2="145.409" y2="4.43638" gradientUnits="userSpaceOnUse">
<stop offset="0.015625" stop-color="#04C8C8"/>
<stop offset="0.32905" stop-color="#7CFFFF"/>
<stop offset="0.479167" stop-color="#7CFFFF"/>
<stop offset="0.623016" stop-color="#7CFFFF"/>
<stop offset="1" stop-color="#04C8C8"/>
</linearGradient>
</defs>
</svg>
