<svg xmlns="http://www.w3.org/2000/svg" xmlns:xlink="http://www.w3.org/1999/xlink" viewBox="0 0 83 83" width="83" height="83" preserveAspectRatio="xMidYMid meet" style="width: 100%; height: 100%; transform: translate3d(0px, 0px, 0px); content-visibility: visible;"><defs><clipPath id="__lottie_element_4"><rect width="83" height="83" x="0" y="0"></rect></clipPath><linearGradient id="__lottie_element_8" spreadMethod="pad" gradientUnits="userSpaceOnUse" x1="0.25" y1="-38.68000030517578" x2="-0.25" y2="40.007999420166016"><stop offset="0%" stop-color="rgb(158,113,255)"></stop><stop offset="50%" stop-color="rgb(136,85,245)"></stop><stop offset="100%" stop-color="rgb(114,57,234)"></stop></linearGradient><linearGradient id="__lottie_element_12" spreadMethod="pad" gradientUnits="userSpaceOnUse" x1="42.5" y1="9.086999893188477" x2="-44.867000579833984" y2="-5.723999977111816"><stop offset="2%" stop-color="rgb(4,200,200)"></stop><stop offset="17%" stop-color="rgb(64,227,227)"></stop><stop offset="33%" stop-color="rgb(124,255,255)"></stop><stop offset="40%" stop-color="rgb(124,255,255)"></stop><stop offset="48%" stop-color="rgb(124,255,255)"></stop><stop offset="55%" stop-color="rgb(124,255,255)"></stop><stop offset="62%" stop-color="rgb(124,255,255)"></stop><stop offset="81%" stop-color="rgb(64,227,227)"></stop><stop offset="100%" stop-color="rgb(4,200,200)"></stop></linearGradient><linearGradient id="__lottie_element_17" spreadMethod="pad" gradientUnits="userSpaceOnUse" x1="-0.25" y1="-39.18000030517578" x2="-0.25" y2="38.257999420166016"><stop offset="0%" stop-color="rgb(158,113,255)"></stop><stop offset="50%" stop-color="rgb(136,85,245)"></stop><stop offset="100%" stop-color="rgb(114,57,234)"></stop></linearGradient><linearGradient id="__lottie_element_20" spreadMethod="pad" gradientUnits="userSpaceOnUse" x1="42.5" y1="9.086999893188477" x2="-44.867000579833984" y2="-5.723999977111816"><stop offset="2%" stop-color="rgb(4,200,200)"></stop><stop offset="17%" stop-color="rgb(64,227,227)"></stop><stop offset="33%" stop-color="rgb(124,255,255)"></stop><stop offset="40%" stop-color="rgb(124,255,255)"></stop><stop offset="48%" stop-color="rgb(124,255,255)"></stop><stop offset="55%" stop-color="rgb(124,255,255)"></stop><stop offset="62%" stop-color="rgb(124,255,255)"></stop><stop offset="81%" stop-color="rgb(64,227,227)"></stop><stop offset="100%" stop-color="rgb(4,200,200)"></stop></linearGradient></defs><g clip-path="url(#__lottie_element_4)"><g transform="matrix(1,0,0,1,41.5,41.5)" opacity="1" style="display: block;"><g opacity="1" transform="matrix(1,0,0,1,0,0)"><path fill="url(#__lottie_element_8)" fill-opacity="1" d=" M40.284000396728516,10.211926460266113 C40.284000396728516,10.211926460266113 30.93000030517578,5.056926250457764 30.93000030517578,5.056926250457764 C30.93000030517578,5.056926250457764 1.215999960899353,21.78692626953125 1.215999960899353,21.78692626953125 C0.8270000219345093,21.980926513671875 0.3889999985694885,22.077926635742188 0,22.077926635742188 C-0.3889999985694885,22.077926635742188 -0.8270000219345093,21.980926513671875 -1.215999960899353,21.78692626953125 C-1.215999960899353,21.78692626953125 -30.93000030517578,5.056926250457764 -30.93000030517578,5.056926250457764 C-30.93000030517578,5.056926250457764 -40.284000396728516,10.211926460266113 -40.284000396728516,10.211926460266113 C-41.013999938964844,10.64992618560791 -41.5,11.47692584991455 -41.5,12.35192584991455 C-41.5,13.22692584991455 -41.013999938964844,14.053926467895508 -40.284000396728516,14.491926193237305 C-40.284000396728516,14.491926193237305 -1.215999960899353,36.37692642211914 -1.215999960899353,36.37692642211914 C-0.8270000219345093,36.570926666259766 -0.3889999985694885,36.66792678833008 0,36.66792678833008 C0.3889999985694885,36.66792678833008 0.8270000219345093,36.570926666259766 1.215999960899353,36.37692642211914 C1.215999960899353,36.37692642211914 40.284000396728516,14.491926193237305 40.284000396728516,14.491926193237305 C41.013999938964844,14.053926467895508 41.5,13.22692584991455 41.5,12.35192584991455 C41.5,11.47692584991455 41.013999938964844,10.64992618560791 40.284000396728516,10.211926460266113z M-40.29051208496094,-9.937171936035156 C-40.29051208496094,-9.937171936035156 -1.222510814666748,11.947665214538574 -1.222510814666748,11.947665214538574 C-0.8335107564926147,12.1416654586792 -0.3955107629299164,12.239665031433105 -0.006510760635137558,12.239665031433105 C0.38248923420906067,12.239665031433105 0.820489227771759,12.1416654586792 1.2094892263412476,11.947665214538574 C1.2094892263412476,11.947665214538574 40.277488708496094,-9.937171936035156 40.277488708496094,-9.937171936035156 C41.00748825073242,-10.375171661376953 41.49348831176758,-11.20217227935791 41.49348831176758,-12.07717227935791 C41.49348831176758,-12.95217227935791 41.00748825073242,-13.77917194366455 40.277488708496094,-14.217171669006348 C40.277488708496094,-14.217171669006348 1.2094892263412476,-36.10133361816406 1.2094892263412476,-36.10133361816406 C0.4314892292022705,-36.490333557128906 -0.4445107579231262,-36.490333557128906 -1.222510814666748,-36.10133361816406 C-1.222510814666748,-36.10133361816406 -40.29051208496094,-14.217171669006348 -40.29051208496094,-14.217171669006348 C-41.020511627197266,-13.77917194366455 -41.50651168823242,-12.95217227935791 -41.50651168823242,-12.07717227935791 C-41.50651168823242,-11.20217227935791 -41.020511627197266,-10.375171661376953 -40.29051208496094,-9.937171936035156z M8.018488883972168,-15.238334655761719 C7.045489311218262,-16.162334442138672 7.045489311218262,-17.718334197998047 8.018488883972168,-18.642333984375 C8.942489624023438,-19.61533546447754 10.498489379882812,-19.61533546447754 11.422489166259766,-18.642333984375 C11.422489166259766,-18.642333984375 16.285490036010742,-13.779335021972656 16.285490036010742,-13.779335021972656 C17.25848960876465,-12.855334281921387 17.25848960876465,-11.299172401428223 16.285490036010742,-10.375171661376953 C16.285490036010742,-10.375171661376953 11.422489166259766,-5.512171745300293 11.422489166259766,-5.512171745300293 C10.547489166259766,-4.539172172546387 8.893488883972168,-4.539172172546387 8.018488883972168,-5.512171745300293 C7.045489311218262,-6.436172008514404 7.045489311218262,-7.992171764373779 8.018488883972168,-8.91617202758789 C8.018488883972168,-8.91617202758789 11.130489349365234,-12.07717227935791 11.130489349365234,-12.07717227935791 C11.130489349365234,-12.07717227935791 8.018488883972168,-15.238334655761719 8.018488883972168,-15.238334655761719z M-3.605510711669922,-7.797334671020508 C-3.605510711669922,-7.797334671020508 -1.1735107898712158,-17.524171829223633 -1.1735107898712158,-17.524171829223633 C-0.8335107564926147,-18.83717155456543 0.4794892370700836,-19.615171432495117 1.7924892902374268,-19.275171279907227 C3.1054892539978027,-18.983171463012695 3.8844892978668213,-17.6701717376709 3.592489242553711,-16.3571720123291 C3.592489242553711,-16.3571720123291 1.1604892015457153,-6.630334854125977 1.1604892015457153,-6.630334854125977 C0.7464892268180847,-5.041334629058838 -1.0475107431411743,-4.500334739685059 -1.8055107593536377,-4.879334926605225 C-3.1185107231140137,-5.171334743499756 -3.8975107669830322,-6.484334945678711 -3.605510711669922,-7.797334671020508z M-16.298511505126953,-13.779335021972656 C-16.298511505126953,-13.779335021972656 -11.434673309326172,-18.642333984375 -11.434673309326172,-18.642333984375 C-10.510673522949219,-19.61533546447754 -8.954510688781738,-19.61533546447754 -8.030510902404785,-18.642333984375 C-7.057510852813721,-17.718334197998047 -7.057510852813721,-16.162334442138672 -8.030510902404785,-15.238334655761719 C-8.030510902404785,-15.238334655761719 -11.143510818481445,-12.07717227935791 -11.143510818481445,-12.07717227935791 C-11.143510818481445,-12.07717227935791 -8.031510353088379,-8.91617202758789 -8.031510353088379,-8.91617202758789 C-7.058510780334473,-7.992171764373779 -7.058510780334473,-6.436172008514404 -8.031510353088379,-5.512171745300293 C-8.906510353088379,-4.539172172546387 -10.560510635375977,-4.539172172546387 -11.435510635375977,-5.512171745300293 C-11.435510635375977,-5.512171745300293 -16.298511505126953,-10.375171661376953 -16.298511505126953,-10.375171661376953 C-17.27151107788086,-11.299172401428223 -17.27151107788086,-12.855334281921387 -16.298511505126953,-13.779335021972656z"></path></g></g><g transform="matrix(1,0,0,1,41.5,56.25)" opacity="1" style="display: block;"><g opacity="1" transform="matrix(1,0,0,1,0,0)"><path fill="url(#__lottie_element_12)" fill-opacity="1" d=" M-40.284000396728516,-12.338014602661133 C-40.284000396728516,-12.338014602661133 -1.215999960899353,9.546822547912598 -1.215999960899353,9.546822547912598 C-0.8270000219345093,9.740821838378906 -0.3889999985694885,9.838822364807129 0,9.838822364807129 C0.3889999985694885,9.838822364807129 0.8270000219345093,9.740821838378906 1.215999960899353,9.546822547912598 C1.215999960899353,9.546822547912598 40.284000396728516,-12.338014602661133 40.284000396728516,-12.338014602661133 C41.013999938964844,-12.776015281677246 41.5,-13.603014945983887 41.5,-14.478014945983887 C41.5,-15.353014945983887 41.013999938964844,-16.180015563964844 40.284000396728516,-16.61801528930664 C40.284000396728516,-16.61801528930664 1.215999960899353,-38.50217819213867 1.215999960899353,-38.50217819213867 C0.43799999356269836,-38.891178131103516 -0.43799999356269836,-38.891178131103516 -1.215999960899353,-38.50217819213867 C-1.215999960899353,-38.50217819213867 -40.284000396728516,-16.61801528930664 -40.284000396728516,-16.61801528930664 C-41.013999938964844,-16.180015563964844 -41.5,-15.353014945983887 -41.5,-14.478014945983887 C-41.5,-13.603014945983887 -41.013999938964844,-12.776015281677246 -40.284000396728516,-12.338014602661133z"></path></g></g><g transform="matrix(1,0,0,1,41.5,49.25)" opacity="1" style="display: block;"><g opacity="1" transform="matrix(1,0,0,1,0,0)"><path fill="url(#__lottie_element_20)" fill-opacity="1" d=" M-17.778465270996094,-10.008464813232422 C-17.778465270996094,-10.008464813232422 -3.210465908050537,-4.123464584350586 -3.210465908050537,-4.123464584350586 C-2.8214659690856934,-3.929464817047119 0.83253413438797,-3.679464817047119 1.2215341329574585,-3.873464822769165 C1.2215341329574585,-3.873464822769165 20.039533615112305,-13.508464813232422 20.039533615112305,-13.508464813232422 C20.769535064697266,-13.946464538574219 22.25553321838379,-15.523465156555176 22.25553321838379,-16.39846420288086 C22.25553321838379,-17.27346420288086 22.019535064697266,-21.8504638671875 21.289533615112305,-22.28846549987793 C21.289533615112305,-22.28846549987793 14.47153377532959,-29.67246437072754 14.47153377532959,-29.67246437072754 C13.693533897399902,-30.061464309692383 -13.432465553283691,-30.811464309692383 -14.210465431213379,-30.42246437072754 C-14.210465431213379,-30.42246437072754 -22.278465270996094,-26.03846549987793 -22.278465270996094,-26.03846549987793 C-23.008466720581055,-25.6004638671875 -22.74446678161621,-15.273465156555176 -22.74446678161621,-14.398465156555176 C-22.74446678161621,-13.523465156555176 -18.508466720581055,-10.446464538574219 -17.778465270996094,-10.008464813232422z"></path></g></g><g transform="matrix(1,0,0,1,41.5,41.5)" opacity="1" style="display: block;"><g opacity="1" transform="matrix(1,0,0,1,0,0)"><path fill="url(#__lottie_element_17)" fill-opacity="1" d=" M-40.29051208496094,-9.937171936035156 C-40.29051208496094,-9.937171936035156 -1.222510814666748,11.947665214538574 -1.222510814666748,11.947665214538574 C-0.8335107564926147,12.1416654586792 -0.3955107629299164,12.239665031433105 -0.006510760635137558,12.239665031433105 C0.38248923420906067,12.239665031433105 0.820489227771759,12.1416654586792 1.2094892263412476,11.947665214538574 C1.2094892263412476,11.947665214538574 40.277488708496094,-9.937171936035156 40.277488708496094,-9.937171936035156 C41.00748825073242,-10.375171661376953 41.49348831176758,-11.20217227935791 41.49348831176758,-12.07717227935791 C41.49348831176758,-12.95217227935791 41.00748825073242,-13.77917194366455 40.277488708496094,-14.217171669006348 C40.277488708496094,-14.217171669006348 1.2094892263412476,-36.10133361816406 1.2094892263412476,-36.10133361816406 C0.4314892292022705,-36.490333557128906 -0.4445107579231262,-36.490333557128906 -1.222510814666748,-36.10133361816406 C-1.222510814666748,-36.10133361816406 -40.29051208496094,-14.217171669006348 -40.29051208496094,-14.217171669006348 C-41.020511627197266,-13.77917194366455 -41.50651168823242,-12.95217227935791 -41.50651168823242,-12.07717227935791 C-41.50651168823242,-11.20217227935791 -41.020511627197266,-10.375171661376953 -40.29051208496094,-9.937171936035156z M8.018488883972168,-15.238334655761719 C7.045489311218262,-16.162334442138672 7.045489311218262,-17.718334197998047 8.018488883972168,-18.642333984375 C8.942489624023438,-19.61533546447754 10.498489379882812,-19.61533546447754 11.422489166259766,-18.642333984375 C11.422489166259766,-18.642333984375 16.285490036010742,-13.779335021972656 16.285490036010742,-13.779335021972656 C17.25848960876465,-12.855334281921387 17.25848960876465,-11.299172401428223 16.285490036010742,-10.375171661376953 C16.285490036010742,-10.375171661376953 11.422489166259766,-5.512171745300293 11.422489166259766,-5.512171745300293 C10.547489166259766,-4.539172172546387 8.893488883972168,-4.539172172546387 8.018488883972168,-5.512171745300293 C7.045489311218262,-6.436172008514404 7.045489311218262,-7.992171764373779 8.018488883972168,-8.91617202758789 C8.018488883972168,-8.91617202758789 11.130489349365234,-12.07717227935791 11.130489349365234,-12.07717227935791 C11.130489349365234,-12.07717227935791 8.018488883972168,-15.238334655761719 8.018488883972168,-15.238334655761719z M-3.605510711669922,-7.797334671020508 C-3.605510711669922,-7.797334671020508 -1.1735107898712158,-17.524171829223633 -1.1735107898712158,-17.524171829223633 C-0.8335107564926147,-18.83717155456543 0.4794892370700836,-19.615171432495117 1.7924892902374268,-19.275171279907227 C3.1054892539978027,-18.983171463012695 3.8844892978668213,-17.6701717376709 3.592489242553711,-16.3571720123291 C3.592489242553711,-16.3571720123291 1.1604892015457153,-6.630334854125977 1.1604892015457153,-6.630334854125977 C0.7464892268180847,-5.041334629058838 -1.0475107431411743,-4.500334739685059 -1.8055107593536377,-4.879334926605225 C-3.1185107231140137,-5.171334743499756 -3.8975107669830322,-6.484334945678711 -3.605510711669922,-7.797334671020508z M-16.298511505126953,-13.779335021972656 C-16.298511505126953,-13.779335021972656 -11.434673309326172,-18.642333984375 -11.434673309326172,-18.642333984375 C-10.510673522949219,-19.61533546447754 -8.954510688781738,-19.61533546447754 -8.030510902404785,-18.642333984375 C-7.057510852813721,-17.718334197998047 -7.057510852813721,-16.162334442138672 -8.030510902404785,-15.238334655761719 C-8.030510902404785,-15.238334655761719 -11.143510818481445,-12.07717227935791 -11.143510818481445,-12.07717227935791 C-11.143510818481445,-12.07717227935791 -8.031510353088379,-8.91617202758789 -8.031510353088379,-8.91617202758789 C-7.058510780334473,-7.992171764373779 -7.058510780334473,-6.436172008514404 -8.031510353088379,-5.512171745300293 C-8.906510353088379,-4.539172172546387 -10.560510635375977,-4.539172172546387 -11.435510635375977,-5.512171745300293 C-11.435510635375977,-5.512171745300293 -16.298511505126953,-10.375171661376953 -16.298511505126953,-10.375171661376953 C-17.27151107788086,-11.299172401428223 -17.27151107788086,-12.855334281921387 -16.298511505126953,-13.779335021972656z"></path></g></g></g></svg>