<svg width="19" height="21" viewBox="0 0 19 21" fill="none" xmlns="http://www.w3.org/2000/svg">
<path d="M3.88322 16.6533C3.58322 16.4533 3.32522 16.1983 3.02322 15.8373C2.86647 15.6454 2.71113 15.4524 2.55722 15.2583C2.09422 14.6833 1.80222 14.4183 1.50022 14.3093C1.25052 14.2196 1.04666 14.0345 0.933481 13.7945C0.820303 13.5546 0.807081 13.2795 0.896724 13.0298C0.986367 12.7801 1.17153 12.5762 1.41149 12.463C1.65144 12.3498 1.92652 12.3366 2.17622 12.4263C2.92822 12.6963 3.43722 13.1613 4.12322 14.0143C4.02922 13.8973 4.46322 14.4413 4.55622 14.5533C4.74622 14.7803 4.88622 14.9183 4.99622 14.9913C5.20022 15.1283 5.58322 15.1873 6.14622 15.1313C6.16922 14.7493 6.24022 14.3783 6.34822 14.0363C3.38022 13.3103 1.70022 11.3963 1.70022 7.64027C1.70022 6.40027 2.07022 5.28427 2.75822 4.34827C2.54022 3.45427 2.57322 2.37327 3.06022 1.15627C3.11549 1.0186 3.2007 0.894958 3.30966 0.794296C3.41862 0.693633 3.54862 0.618475 3.69022 0.574267C3.77122 0.550267 3.81722 0.539267 3.89822 0.527267C4.70122 0.404267 5.83522 0.697267 7.31322 1.62327C8.19402 1.41735 9.09568 1.314 10.0002 1.31527C10.9122 1.31527 11.8182 1.41927 12.6842 1.62327C14.1612 0.690267 15.2972 0.397267 16.1062 0.527267C16.1912 0.540267 16.2632 0.557267 16.3242 0.577267C16.4631 0.623044 16.5902 0.698701 16.6966 0.79891C16.803 0.899119 16.8862 1.02144 16.9402 1.15727C17.4272 2.37327 17.4602 3.45427 17.2422 4.34727C17.9332 5.28327 18.3002 6.39227 18.3002 7.64027C18.3002 11.3973 16.6262 13.3053 13.6582 14.0323C13.7832 14.4473 13.8482 14.9113 13.8482 15.4123C13.8483 16.3176 13.8443 17.223 13.8362 18.1283C14.0608 18.1773 14.2616 18.3021 14.405 18.4818C14.5483 18.6615 14.6253 18.8851 14.623 19.115C14.6208 19.3448 14.5395 19.5669 14.3927 19.7438C14.2459 19.9207 14.0427 20.0416 13.8172 20.0863C12.6782 20.3143 11.8342 19.5543 11.8342 18.5613L11.8362 18.1153L11.8412 17.4103C11.8462 16.7023 11.8482 16.0723 11.8482 15.4123C11.8482 14.7153 11.6652 14.2603 11.4232 14.0523C10.7622 13.4823 11.0972 12.3973 11.9632 12.3003C14.9302 11.9673 16.3002 10.8183 16.3002 7.64027C16.3002 6.68527 15.9882 5.89627 15.3872 5.23627C15.2606 5.09751 15.1756 4.9259 15.142 4.74108C15.1084 4.55626 15.1275 4.36571 15.1972 4.19127C15.3632 3.77727 15.4342 3.23427 15.2932 2.57727L15.2832 2.58027C14.7922 2.71927 14.1732 3.02027 13.4252 3.52927C13.3046 3.61112 13.1676 3.66562 13.0237 3.68894C12.8798 3.71226 12.7325 3.70384 12.5922 3.66427C11.7481 3.43055 10.8761 3.31314 10.0002 3.31527C9.11022 3.31527 8.22822 3.43427 7.40822 3.66527C7.26844 3.70452 7.12179 3.71287 6.97846 3.68973C6.83512 3.66659 6.69855 3.61252 6.57822 3.53127C5.82622 3.02427 5.20422 2.72427 4.71022 2.58427C4.56622 3.23727 4.63722 3.77827 4.80222 4.19127C4.87203 4.36562 4.89133 4.55612 4.8579 4.74093C4.82448 4.92574 4.73968 5.09741 4.61322 5.23627C4.01622 5.89027 3.70022 6.69427 3.70022 7.64027C3.70022 10.8123 5.07122 11.9683 8.02222 12.3003C8.88722 12.3973 9.22322 13.4773 8.56622 14.0483C8.37422 14.2163 8.13722 14.7803 8.13722 15.4123V18.5623C8.13722 19.5483 7.30222 20.2873 6.17722 20.0903C5.94899 20.0502 5.74176 19.9321 5.59094 19.7562C5.44013 19.5802 5.35509 19.3574 5.35037 19.1257C5.34564 18.894 5.42153 18.6679 5.56504 18.486C5.70856 18.3041 5.91081 18.1776 6.13722 18.1283V17.1383C5.22722 17.1993 4.47522 17.0503 3.88322 16.6533Z" fill="white"/>
</svg>
