<svg width="18" height="15" viewBox="0 0 18 15" fill="none" xmlns="http://www.w3.org/2000/svg">
<path d="M5.66 15C12.45 15 16.167 9.234 16.167 4.237C16.167 4.077 16.167 3.917 16.157 3.747C16.8834 3.20981 17.5079 2.54704 18.001 1.79C17.338 2.09 16.625 2.29 15.874 2.39C16.651 1.90746 17.2293 1.16241 17.504 0.29C16.791 0.73 16.001 1.04 15.152 1.21C14.8144 0.829679 14.4 0.52521 13.9362 0.316649C13.4723 0.108088 12.9696 0.000168475 12.461 0C10.42 0 8.761 1.699 8.761 3.787C8.761 4.087 8.8 4.367 8.859 4.647C5.795 4.497 3.073 2.978 1.249 0.69C0.920521 1.27212 0.748915 1.9296 0.751 2.598C0.751 3.908 1.405 5.067 2.391 5.746C1.80492 5.72614 1.23232 5.56489 0.722 5.276V5.326C0.722 7.156 2 8.694 3.678 9.034C3.366 9.124 3.044 9.164 2.702 9.164C2.468 9.164 2.234 9.144 2.01 9.094C2.478 10.603 3.844 11.692 5.463 11.722C4.16536 12.7713 2.54678 13.3432 0.878 13.342C0.585 13.342 0.283 13.332 0 13.292C1.67683 14.4073 3.64614 15.0016 5.66 15Z" fill="white"/>
</svg>
