<svg width="106" height="106" viewBox="0 0 106 106" fill="none" xmlns="http://www.w3.org/2000/svg">
<g filter="url(#filter0_f_1_64246)">
<rect x="10" y="10" width="86" height="86" rx="10" fill="#383E56"/>
<rect x="10" y="10" width="86" height="86" rx="10" stroke="url(#paint0_linear_1_64246)" stroke-width="4"/>
</g>
<rect x="10" y="8" width="86" height="86" rx="10" fill="#383E56" stroke="url(#paint1_linear_1_64246)" stroke-width="4"/>
<path d="M29.8565 66V36.9091H41.3338C43.5402 36.9091 45.42 37.3305 46.973 38.1733C48.526 39.0066 49.7098 40.1667 50.5241 41.6534C51.348 43.1307 51.7599 44.8352 51.7599 46.767C51.7599 48.6989 51.3433 50.4034 50.5099 51.8807C49.6766 53.358 48.4692 54.5085 46.8878 55.3324C45.3158 56.1562 43.4124 56.5682 41.1776 56.5682H33.8622V51.6392H40.1832C41.367 51.6392 42.3423 51.4356 43.1094 51.0284C43.8859 50.6117 44.4635 50.0388 44.8423 49.3097C45.2306 48.571 45.4247 47.7235 45.4247 46.767C45.4247 45.8011 45.2306 44.9583 44.8423 44.2386C44.4635 43.5095 43.8859 42.946 43.1094 42.5483C42.3329 42.1411 41.348 41.9375 40.1548 41.9375H36.0071V66H29.8565ZM55.755 66V36.9091H67.4027C69.5429 36.9091 71.3279 37.2263 72.7578 37.8608C74.1877 38.4953 75.2625 39.3759 75.9822 40.5028C76.7019 41.6203 77.0618 42.9081 77.0618 44.3665C77.0618 45.5028 76.8345 46.5019 76.38 47.3636C75.9254 48.2159 75.3004 48.9167 74.505 49.4659C73.719 50.0057 72.8194 50.3892 71.8061 50.6165V50.9006C72.9141 50.9479 73.951 51.2604 74.9169 51.8381C75.8923 52.4157 76.683 53.2254 77.2891 54.267C77.8951 55.2992 78.1982 56.5303 78.1982 57.9602C78.1982 59.5038 77.8146 60.8816 77.0476 62.0938C76.29 63.2964 75.1679 64.2481 73.6811 64.9489C72.1944 65.6496 70.362 66 68.1839 66H55.755ZM61.9055 60.9716H66.9197C68.6338 60.9716 69.8838 60.6449 70.6697 59.9915C71.4557 59.3286 71.8487 58.4479 71.8487 57.3494C71.8487 56.5445 71.6546 55.8343 71.2663 55.2188C70.8781 54.6032 70.3241 54.1203 69.6044 53.7699C68.8942 53.4195 68.0466 53.2443 67.0618 53.2443H61.9055V60.9716ZM61.9055 49.0824H66.4652C67.308 49.0824 68.0561 48.9356 68.7095 48.642C69.3724 48.339 69.8932 47.9129 70.272 47.3636C70.6603 46.8144 70.8544 46.1562 70.8544 45.3892C70.8544 44.3381 70.4804 43.4905 69.7322 42.8466C68.9936 42.2027 67.9425 41.8807 66.5788 41.8807H61.9055V49.0824Z" fill="white"/>
<defs>
<filter id="filter0_f_1_64246" x="0" y="0" width="106" height="106" filterUnits="userSpaceOnUse" color-interpolation-filters="sRGB">
<feFlood flood-opacity="0" result="BackgroundImageFix"/>
<feBlend mode="normal" in="SourceGraphic" in2="BackgroundImageFix" result="shape"/>
<feGaussianBlur stdDeviation="4" result="effect1_foregroundBlur_1_64246"/>
</filter>
<linearGradient id="paint0_linear_1_64246" x1="53" y1="-49" x2="147.747" y2="15.5867" gradientUnits="userSpaceOnUse">
<stop stop-color="#AD21A7" stop-opacity="0.79"/>
<stop offset="0.354134" stop-color="#FA48F2"/>
<stop offset="0.655402" stop-color="#42AD10" stop-opacity="0.62"/>
<stop offset="1" stop-color="#C7FAB0"/>
</linearGradient>
<linearGradient id="paint1_linear_1_64246" x1="53" y1="-51" x2="147.747" y2="13.5867" gradientUnits="userSpaceOnUse">
<stop stop-color="#AD21A7" stop-opacity="0.79"/>
<stop offset="0.354134" stop-color="#FA48F2"/>
<stop offset="0.655402" stop-color="#42AD10" stop-opacity="0.62"/>
<stop offset="1" stop-color="#C7FAB0"/>
</linearGradient>
</defs>
</svg>
