<svg width="106" height="106" viewBox="0 0 106 106" fill="none" xmlns="http://www.w3.org/2000/svg">
<g filter="url(#filter0_f_1_64218)">
<rect x="10" y="10" width="86" height="86" rx="10" fill="#383E56"/>
<rect x="10" y="10" width="86" height="86" rx="10" stroke="url(#paint0_linear_1_64218)" stroke-width="4"/>
</g>
<rect x="10" y="8" width="86" height="86" rx="10" fill="#383E56" stroke="url(#paint1_linear_1_64218)" stroke-width="4"/>
<path d="M27.5401 66V36.9091H39.0174C41.2238 36.9091 43.1036 37.3305 44.6566 38.1733C46.2096 39.0066 47.3933 40.1667 48.2077 41.6534C49.0316 43.1307 49.4435 44.8352 49.4435 46.767C49.4435 48.6989 49.0269 50.4034 48.1935 51.8807C47.3602 53.358 46.1528 54.5085 44.5714 55.3324C42.9994 56.1562 41.096 56.5682 38.8612 56.5682H31.5458V51.6392H37.8668C39.0505 51.6392 40.0259 51.4356 40.793 51.0284C41.5695 50.6117 42.1471 50.0388 42.5259 49.3097C42.9142 48.571 43.1083 47.7235 43.1083 46.767C43.1083 45.8011 42.9142 44.9583 42.5259 44.2386C42.1471 43.5095 41.5695 42.946 40.793 42.5483C40.0165 42.1411 39.0316 41.9375 37.8384 41.9375H33.6907V66H27.5401ZM79.1062 47.0938H72.8846C72.771 46.2888 72.5389 45.5739 72.1886 44.9489C71.8382 44.3144 71.3884 43.7746 70.8391 43.3295C70.2899 42.8845 69.6554 42.5436 68.9357 42.3068C68.2255 42.0701 67.4537 41.9517 66.6204 41.9517C65.1147 41.9517 63.8031 42.3258 62.6857 43.0739C61.5683 43.8125 60.7018 44.892 60.0863 46.3125C59.4708 47.7235 59.163 49.4375 59.163 51.4545C59.163 53.5284 59.4708 55.2708 60.0863 56.6818C60.7113 58.0928 61.5825 59.1581 62.6999 59.8778C63.8174 60.5975 65.11 60.9574 66.5778 60.9574C67.4016 60.9574 68.1639 60.8485 68.8647 60.6307C69.5749 60.4129 70.2047 60.0956 70.7539 59.679C71.3031 59.2528 71.7577 58.7367 72.1175 58.1307C72.4869 57.5246 72.7425 56.8333 72.8846 56.0568L79.1062 56.0852C78.9452 57.4205 78.5427 58.7083 77.8988 59.9489C77.2643 61.1799 76.4073 62.2831 75.3278 63.2585C74.2577 64.2244 72.9793 64.9915 71.4925 65.5597C70.0153 66.1184 68.3439 66.3977 66.4783 66.3977C63.8836 66.3977 61.5636 65.8106 59.5181 64.6364C57.4821 63.4621 55.8723 61.7623 54.6886 59.5369C53.5143 57.3116 52.9272 54.6174 52.9272 51.4545C52.9272 48.2822 53.5238 45.5833 54.717 43.358C55.9102 41.1326 57.5295 39.4375 59.5749 38.2727C61.6204 37.0985 63.9215 36.5114 66.4783 36.5114C68.1639 36.5114 69.7264 36.7481 71.1658 37.2216C72.6147 37.6951 73.8978 38.3864 75.0153 39.2955C76.1327 40.1951 77.0418 41.2983 77.7425 42.6051C78.4528 43.9119 78.9073 45.4081 79.1062 47.0938Z" fill="white"/>
<defs>
<filter id="filter0_f_1_64218" x="0" y="0" width="106" height="106" filterUnits="userSpaceOnUse" color-interpolation-filters="sRGB">
<feFlood flood-opacity="0" result="BackgroundImageFix"/>
<feBlend mode="normal" in="SourceGraphic" in2="BackgroundImageFix" result="shape"/>
<feGaussianBlur stdDeviation="4" result="effect1_foregroundBlur_1_64218"/>
</filter>
<linearGradient id="paint0_linear_1_64218" x1="-7" y1="10" x2="59.949" y2="130.063" gradientUnits="userSpaceOnUse">
<stop stop-color="#FFC700"/>
<stop offset="0.252232" stop-color="#F0BC00" stop-opacity="0.79"/>
<stop offset="0.625" stop-color="#F2416C" stop-opacity="0.79"/>
<stop offset="0.957003" stop-color="#DA214E"/>
</linearGradient>
<linearGradient id="paint1_linear_1_64218" x1="-7" y1="8" x2="59.949" y2="128.063" gradientUnits="userSpaceOnUse">
<stop stop-color="#FFC700"/>
<stop offset="0.252232" stop-color="#F0BC00" stop-opacity="0.79"/>
<stop offset="0.625" stop-color="#F2416C" stop-opacity="0.79"/>
<stop offset="0.957003" stop-color="#DA214E"/>
</linearGradient>
</defs>
</svg>
