<svg width="106" height="106" viewBox="0 0 106 106" fill="none" xmlns="http://www.w3.org/2000/svg">
<g filter="url(#filter0_f_1_64238)">
<rect x="10" y="10" width="86" height="86" rx="10" fill="#383E56"/>
<rect x="10" y="10" width="86" height="86" rx="10" stroke="url(#paint0_linear_1_64238)" stroke-width="4"/>
</g>
<rect x="10" y="8" width="86" height="86" rx="10" fill="#383E56" stroke="url(#paint1_linear_1_64238)" stroke-width="4"/>
<path d="M24.3543 62V40.1818H32.9623C34.6171 40.1818 36.0269 40.4979 37.1917 41.13C38.3564 41.755 39.2442 42.625 39.855 43.7401C40.4729 44.848 40.7819 46.1264 40.7819 47.5753C40.7819 49.0241 40.4694 50.3026 39.8444 51.4105C39.2194 52.5185 38.3138 53.3814 37.1278 53.9993C35.9488 54.6172 34.5212 54.9261 32.8451 54.9261H27.3586V51.2294H32.0993C32.9871 51.2294 33.7187 51.0767 34.2939 50.7713C34.8763 50.4588 35.3096 50.0291 35.5937 49.4822C35.8849 48.9283 36.0305 48.2926 36.0305 47.5753C36.0305 46.8509 35.8849 46.2187 35.5937 45.679C35.3096 45.1321 34.8763 44.7095 34.2939 44.4112C33.7116 44.1058 32.9729 43.9531 32.078 43.9531H28.9672V62H24.3543ZM51.5125 62H43.7781V40.1818H51.5764C53.771 40.1818 55.6602 40.6186 57.2441 41.4922C58.8279 42.3587 60.0459 43.6051 60.8982 45.2315C61.7575 46.858 62.1872 48.804 62.1872 51.0696C62.1872 53.3423 61.7575 55.2955 60.8982 56.929C60.0459 58.5625 58.8208 59.8161 57.2227 60.6896C55.6318 61.5632 53.7284 62 51.5125 62ZM48.3911 58.0476H51.3208C52.6844 58.0476 53.8314 57.8061 54.7618 57.3232C55.6993 56.8331 56.4024 56.0767 56.8712 55.054C57.347 54.0241 57.585 52.696 57.585 51.0696C57.585 49.4574 57.347 48.1399 56.8712 47.1172C56.4024 46.0945 55.7029 45.3416 54.7725 44.8587C53.8421 44.3757 52.695 44.1342 51.3314 44.1342H48.3911V58.0476ZM65.6043 62V40.1818H74.3401C75.9452 40.1818 77.284 40.4197 78.3564 40.8956C79.4289 41.3714 80.235 42.032 80.7748 42.8771C81.3145 43.7152 81.5844 44.6811 81.5844 45.7749C81.5844 46.6271 81.414 47.3764 81.0731 48.0227C80.7322 48.6619 80.2634 49.1875 79.6668 49.5994C79.0773 50.0043 78.4026 50.2919 77.6427 50.4624V50.6754C78.4736 50.7109 79.2513 50.9453 79.9758 51.3786C80.7073 51.8118 81.3003 52.419 81.7549 53.2003C82.2094 53.9744 82.4367 54.8977 82.4367 55.9702C82.4367 57.1278 82.1491 58.1612 81.5738 59.0703C81.0056 59.9723 80.164 60.6861 79.0489 61.2116C77.9339 61.7372 76.5596 62 74.926 62H65.6043ZM70.2172 58.2287H73.9779C75.2634 58.2287 76.2009 57.9837 76.7904 57.4936C77.3799 56.9964 77.6746 56.3359 77.6746 55.5121C77.6746 54.9084 77.529 54.3757 77.2378 53.9141C76.9466 53.4524 76.5312 53.0902 75.9914 52.8274C75.4587 52.5646 74.8231 52.4332 74.0844 52.4332H70.2172V58.2287ZM70.2172 49.3118H73.637C74.2691 49.3118 74.8302 49.2017 75.3202 48.9815C75.8174 48.7543 76.208 48.4347 76.4921 48.0227C76.7833 47.6108 76.9289 47.1172 76.9289 46.5419C76.9289 45.7536 76.6483 45.1179 76.0873 44.6349C75.5333 44.152 74.7449 43.9105 73.7222 43.9105H70.2172V49.3118Z" fill="white"/>
<defs>
<filter id="filter0_f_1_64238" x="0" y="0" width="106" height="106" filterUnits="userSpaceOnUse" color-interpolation-filters="sRGB">
<feFlood flood-opacity="0" result="BackgroundImageFix"/>
<feBlend mode="normal" in="SourceGraphic" in2="BackgroundImageFix" result="shape"/>
<feGaussianBlur stdDeviation="4" result="effect1_foregroundBlur_1_64238"/>
</filter>
<linearGradient id="paint0_linear_1_64238" x1="-7" y1="10" x2="59.949" y2="130.063" gradientUnits="userSpaceOnUse">
<stop stop-color="#FF4D3D"/>
<stop offset="0.252232" stop-color="#F03322" stop-opacity="0.79"/>
<stop offset="0.625" stop-color="#3CA36A" stop-opacity="0.79"/>
<stop offset="0.957003" stop-color="#22F07D"/>
</linearGradient>
<linearGradient id="paint1_linear_1_64238" x1="-7" y1="8" x2="59.949" y2="128.063" gradientUnits="userSpaceOnUse">
<stop stop-color="#FF4D3D"/>
<stop offset="0.252232" stop-color="#F03322" stop-opacity="0.79"/>
<stop offset="0.625" stop-color="#3CA36A" stop-opacity="0.79"/>
<stop offset="0.957003" stop-color="#22F07D"/>
</linearGradient>
</defs>
</svg>
