<svg width="83" height="83" viewBox="0 0 83 83" fill="none" xmlns="http://www.w3.org/2000/svg">
<g clip-path="url(#clip0_1_64253)">
<path d="M41.5 80.4062C62.9873 80.4062 80.4062 62.9873 80.4062 41.5C80.4062 20.0127 62.9873 2.59375 41.5 2.59375C20.0127 2.59375 2.59375 20.0127 2.59375 41.5C2.59375 62.9873 20.0127 80.4062 41.5 80.4062Z" fill="url(#paint0_linear_1_64253)" fill-opacity="0.8"/>
<path d="M41.5 0C18.3997 0 0 19.0751 0 41.5C0 63.9666 18.4437 83 41.5 83C64.6003 83 83 63.9249 83 41.5C83 19.0334 64.5563 0 41.5 0ZM73.7353 24.4785H61.4349C59.764 17.3546 57.1541 11.4185 53.8696 7.23056C62.4311 10.3312 69.5156 16.5196 73.7353 24.4785ZM49.5074 38.3559C48.5576 37.4061 48.5576 35.8672 49.5074 34.9174C50.4572 33.9676 51.9961 33.9676 52.9459 34.9174L57.8092 39.7807C58.759 40.7305 58.759 42.2694 57.8092 43.2192L52.9459 48.0825C51.9959 49.0323 50.4572 49.0323 49.5074 48.0825C48.5576 47.1327 48.5576 45.5938 49.5074 44.644L52.6513 41.5L49.5074 38.3559ZM43.9316 5.4305C49.1559 7.14481 53.8535 14.3133 56.4405 24.4785H43.9316V5.4305ZM39.0684 5.4305V24.4785H26.5595C29.1465 14.3133 33.8441 7.14481 39.0684 5.4305ZM33.4926 44.6441C34.4424 45.5939 34.4424 47.1328 33.4926 48.0826C32.5426 49.0324 31.0039 49.0324 30.0541 48.0826L25.1908 43.2193C24.241 42.2695 24.241 40.7306 25.1908 39.7808L30.0541 34.9175C31.0039 33.9678 32.5428 33.9678 33.4926 34.9175C34.4424 35.8673 34.4424 37.4063 33.4926 38.3561L30.3487 41.5L33.4926 44.6441ZM29.1304 7.23056C25.8461 11.4185 23.2359 17.3546 21.5651 24.4785H9.26471C13.4844 16.5196 20.5689 10.3312 29.1304 7.23056ZM9.26471 58.5215H21.5651C23.2359 65.6454 25.8459 71.5815 29.1304 75.7694C20.5689 72.6688 13.4844 66.4804 9.26471 58.5215ZM39.0684 77.5693C33.8441 75.8552 29.1465 68.6867 26.5595 58.5215H39.0684V77.5693ZM39.6952 48.7213C38.3891 48.396 37.6008 47.0757 37.9555 45.6468L40.3871 35.9202C40.6831 34.7441 41.9797 33.9415 43.3048 34.2787C44.6109 34.604 45.3992 35.9242 45.0763 37.2257L42.6447 46.9522C42.3195 48.2583 40.9957 49.0465 39.6952 48.7213ZM43.9316 77.5693V58.5215H56.4405C53.8535 68.6867 49.1559 75.8552 43.9316 77.5693ZM53.8696 75.7694C57.1541 71.5815 59.764 65.6454 61.4349 58.5215H73.7353C69.5156 66.4804 62.4311 72.6688 53.8696 75.7694Z" fill="url(#paint1_linear_1_64253)"/>
</g>
<defs>
<linearGradient id="paint0_linear_1_64253" x1="67.9727" y1="-61.4434" x2="138.915" y2="6.75286" gradientUnits="userSpaceOnUse">
<stop offset="0.015625" stop-color="#04C8C8"/>
<stop offset="0.32905" stop-color="#7CFFFF"/>
<stop offset="0.479167" stop-color="#7CFFFF"/>
<stop offset="0.623016" stop-color="#7CFFFF"/>
<stop offset="1" stop-color="#04C8C8"/>
</linearGradient>
<linearGradient id="paint1_linear_1_64253" x1="41.5" y1="0" x2="41.5" y2="83" gradientUnits="userSpaceOnUse">
<stop stop-color="#9E71FF"/>
<stop offset="1" stop-color="#7239EA"/>
</linearGradient>
<clipPath id="clip0_1_64253">
<rect width="83" height="83" fill="white"/>
</clipPath>
</defs>
</svg>
