<svg width="106" height="106" viewBox="0 0 106 106" fill="none" xmlns="http://www.w3.org/2000/svg">
<g filter="url(#filter0_f_1_64222)">
<rect x="10" y="10" width="86" height="86" rx="10" fill="#383E56"/>
<rect x="10" y="10" width="86" height="86" rx="10" stroke="url(#paint0_linear_1_64222)" stroke-width="4"/>
</g>
<rect x="10" y="8" width="86" height="86" rx="10" fill="#383E56" stroke="url(#paint1_linear_1_64222)" stroke-width="4"/>
<path d="M45.3448 45.2756C45.2312 44.1297 44.7435 43.2396 43.8817 42.6051C43.02 41.9706 41.8505 41.6534 40.3732 41.6534C39.3694 41.6534 38.5219 41.7955 37.8306 42.0795C37.1393 42.3542 36.609 42.7377 36.2397 43.2301C35.8799 43.7225 35.6999 44.2812 35.6999 44.9062C35.681 45.4271 35.7899 45.8816 36.0266 46.2699C36.2728 46.6581 36.609 46.9943 37.0352 47.2784C37.4613 47.553 37.9537 47.7945 38.5124 48.0028C39.0711 48.2017 39.6677 48.3722 40.3022 48.5142L42.9158 49.1392C44.1848 49.4233 45.3496 49.8021 46.4102 50.2756C47.4708 50.7491 48.3893 51.3314 49.1658 52.0227C49.9424 52.714 50.5437 53.5284 50.9698 54.4659C51.4054 55.4034 51.628 56.4782 51.6374 57.6903C51.628 59.4706 51.1734 61.0142 50.2738 62.321C49.3836 63.6184 48.0958 64.6269 46.4102 65.3466C44.734 66.0568 42.7122 66.4119 40.3448 66.4119C37.9963 66.4119 35.9509 66.0521 34.2085 65.3324C32.4755 64.6127 31.1213 63.5473 30.146 62.1364C29.18 60.7159 28.6734 58.9593 28.6261 56.8665H34.5778C34.6441 57.8419 34.9234 58.6562 35.4158 59.3097C35.9177 59.9536 36.5853 60.4413 37.4187 60.7727C38.2615 61.0947 39.2132 61.2557 40.2738 61.2557C41.3155 61.2557 42.2198 61.1042 42.9869 60.8011C43.7634 60.4981 44.3647 60.0767 44.7908 59.5369C45.217 58.9972 45.43 58.3769 45.43 57.6761C45.43 57.0227 45.2359 56.4735 44.8477 56.0284C44.4689 55.5833 43.9102 55.2045 43.1715 54.892C42.4424 54.5795 41.5475 54.2955 40.4869 54.0398L37.3192 53.2443C34.8666 52.6477 32.93 51.715 31.5096 50.446C30.0891 49.1771 29.3836 47.4678 29.3931 45.3182C29.3836 43.5568 29.8524 42.018 30.7994 40.7017C31.7558 39.3854 33.0674 38.358 34.734 37.6193C36.4007 36.8807 38.2946 36.5114 40.4158 36.5114C42.5749 36.5114 44.4594 36.8807 46.0692 37.6193C47.6886 38.358 48.948 39.3854 49.8477 40.7017C50.7473 42.018 51.2113 43.5426 51.2397 45.2756H45.3448ZM54.6665 41.9801V36.9091H78.5586V41.9801H69.6523V66H63.5728V41.9801H54.6665Z" fill="white"/>
<defs>
<filter id="filter0_f_1_64222" x="0" y="0" width="106" height="106" filterUnits="userSpaceOnUse" color-interpolation-filters="sRGB">
<feFlood flood-opacity="0" result="BackgroundImageFix"/>
<feBlend mode="normal" in="SourceGraphic" in2="BackgroundImageFix" result="shape"/>
<feGaussianBlur stdDeviation="4" result="effect1_foregroundBlur_1_64222"/>
</filter>
<linearGradient id="paint0_linear_1_64222" x1="-7" y1="10" x2="59.949" y2="130.063" gradientUnits="userSpaceOnUse">
<stop stop-color="#FFDB59"/>
<stop offset="0.252232" stop-color="#FFD336" stop-opacity="0.79"/>
<stop offset="0.625" stop-color="#FF6F03" stop-opacity="0.75"/>
<stop offset="0.957003" stop-color="#FF6F03"/>
</linearGradient>
<linearGradient id="paint1_linear_1_64222" x1="-7" y1="8" x2="59.949" y2="128.063" gradientUnits="userSpaceOnUse">
<stop stop-color="#FFDB59"/>
<stop offset="0.252232" stop-color="#FFD336" stop-opacity="0.79"/>
<stop offset="0.625" stop-color="#FF6F03" stop-opacity="0.75"/>
<stop offset="0.957003" stop-color="#FF6F03"/>
</linearGradient>
</defs>
</svg>
