<svg width="106" height="106" viewBox="0 0 106 106" fill="none" xmlns="http://www.w3.org/2000/svg">
<g filter="url(#filter0_f_1_64242)">
<rect x="10" y="10" width="86" height="86" rx="10" fill="#383E56"/>
<rect x="10" y="10" width="86" height="86" rx="10" stroke="url(#paint0_linear_1_64242)" stroke-width="4"/>
</g>
<rect x="10" y="8" width="86" height="86" rx="10" fill="#383E56" stroke="url(#paint1_linear_1_64242)" stroke-width="4"/>
<path d="M36.9666 46.4567C36.8814 45.5973 36.5156 44.9297 35.8693 44.4538C35.223 43.978 34.3459 43.7401 33.2379 43.7401C32.4851 43.7401 31.8494 43.8466 31.331 44.0597C30.8125 44.2656 30.4148 44.5533 30.1378 44.9226C29.8679 45.2919 29.733 45.7109 29.733 46.1797C29.7188 46.5703 29.8004 46.9112 29.978 47.2024C30.1626 47.4936 30.4148 47.7457 30.7344 47.9588C31.054 48.1648 31.4233 48.3459 31.8423 48.5021C32.2614 48.6513 32.7088 48.7791 33.1847 48.8857L35.1449 49.3544C36.0966 49.5675 36.9702 49.8516 37.7656 50.2067C38.5611 50.5618 39.25 50.9986 39.8324 51.517C40.4148 52.0355 40.8658 52.6463 41.1854 53.3494C41.5121 54.0526 41.679 54.8587 41.6861 55.7678C41.679 57.103 41.3381 58.2607 40.6634 59.2408C39.9957 60.2138 39.0298 60.9702 37.7656 61.5099C36.5085 62.0426 34.9922 62.3089 33.2166 62.3089C31.4553 62.3089 29.9212 62.0391 28.6143 61.4993C27.3146 60.9595 26.299 60.1605 25.5675 59.1023C24.843 58.0369 24.4631 56.7195 24.4276 55.1499H28.8913C28.9411 55.8814 29.1506 56.4922 29.5199 56.9822C29.8963 57.4652 30.397 57.831 31.022 58.0795C31.6541 58.321 32.3679 58.4418 33.1634 58.4418C33.9446 58.4418 34.6229 58.3281 35.1982 58.1009C35.7805 57.8736 36.2315 57.5575 36.5511 57.1527C36.8707 56.7479 37.0305 56.2827 37.0305 55.7571C37.0305 55.267 36.8849 54.8551 36.5938 54.5213C36.3097 54.1875 35.8906 53.9034 35.3366 53.669C34.7898 53.4347 34.1186 53.2216 33.3232 53.0298L30.9474 52.4332C29.108 51.9858 27.6555 51.2862 26.5902 50.3345C25.5249 49.3828 24.9957 48.1009 25.0028 46.4886C24.9957 45.1676 25.3473 44.0135 26.0575 43.0263C26.7749 42.0391 27.7585 41.2685 29.0085 40.7145C30.2585 40.1605 31.679 39.8835 33.2699 39.8835C34.8892 39.8835 36.3026 40.1605 37.5099 40.7145C38.7244 41.2685 39.669 42.0391 40.3438 43.0263C41.0185 44.0135 41.3665 45.157 41.3878 46.4567H36.9666ZM43.9579 43.9851V40.1818H61.877V43.9851H55.1973V62H50.6376V43.9851H43.9579ZM64.8279 62V40.1818H73.5637C75.1689 40.1818 76.5076 40.4197 77.5801 40.8956C78.6525 41.3714 79.4586 42.032 79.9984 42.8771C80.5382 43.7152 80.8081 44.6811 80.8081 45.7749C80.8081 46.6271 80.6376 47.3764 80.2967 48.0227C79.9558 48.6619 79.487 49.1875 78.8904 49.5994C78.301 50.0043 77.6262 50.2919 76.8663 50.4624V50.6754C77.6973 50.7109 78.475 50.9453 79.1994 51.3786C79.9309 51.8118 80.524 52.419 80.9785 53.2003C81.4331 53.9744 81.6603 54.8977 81.6603 55.9702C81.6603 57.1278 81.3727 58.1612 80.7974 59.0703C80.2292 59.9723 79.3876 60.6861 78.2725 61.2116C77.1575 61.7372 75.7832 62 74.1497 62H64.8279ZM69.4409 58.2287H73.2015C74.487 58.2287 75.4245 57.9837 76.014 57.4936C76.6035 56.9964 76.8983 56.3359 76.8983 55.5121C76.8983 54.9084 76.7527 54.3757 76.4615 53.9141C76.1703 53.4524 75.7548 53.0902 75.215 52.8274C74.6824 52.5646 74.0467 52.4332 73.3081 52.4332H69.4409V58.2287ZM69.4409 49.3118H72.8606C73.4927 49.3118 74.0538 49.2017 74.5439 48.9815C75.041 48.7543 75.4316 48.4347 75.7157 48.0227C76.0069 47.6108 76.1525 47.1172 76.1525 46.5419C76.1525 45.7536 75.872 45.1179 75.3109 44.6349C74.7569 44.152 73.9686 43.9105 72.9458 43.9105H69.4409V49.3118Z" fill="white"/>
<defs>
<filter id="filter0_f_1_64242" x="0" y="0" width="106" height="106" filterUnits="userSpaceOnUse" color-interpolation-filters="sRGB">
<feFlood flood-opacity="0" result="BackgroundImageFix"/>
<feBlend mode="normal" in="SourceGraphic" in2="BackgroundImageFix" result="shape"/>
<feGaussianBlur stdDeviation="4" result="effect1_foregroundBlur_1_64242"/>
</filter>
<linearGradient id="paint0_linear_1_64242" x1="10" y1="15.5" x2="59.7656" y2="114.259" gradientUnits="userSpaceOnUse">
<stop stop-color="#F01875"/>
<stop offset="0.252232" stop-color="#FF58A0" stop-opacity="0.79"/>
<stop offset="0.546124" stop-color="#00C9F0" stop-opacity="0.79"/>
<stop offset="0.957003" stop-color="#088AA3"/>
</linearGradient>
<linearGradient id="paint1_linear_1_64242" x1="10" y1="13.5" x2="59.7656" y2="112.259" gradientUnits="userSpaceOnUse">
<stop stop-color="#F01875"/>
<stop offset="0.252232" stop-color="#FF58A0" stop-opacity="0.79"/>
<stop offset="0.546124" stop-color="#00C9F0" stop-opacity="0.79"/>
<stop offset="0.957003" stop-color="#088AA3"/>
</linearGradient>
</defs>
</svg>
