<svg width="83" height="83" viewBox="0 0 83 83" fill="none" xmlns="http://www.w3.org/2000/svg">
<g clip-path="url(#clip0_1_64278)">
<path d="M64.8438 2.43164V80.5684C64.8438 81.9113 63.755 83 62.4121 83H2.43164C1.08873 83 0 81.9113 0 80.5684V18.6426H16.2109C17.5539 18.6426 18.6426 17.5539 18.6426 16.2109V0H62.4121C63.755 0 64.8438 1.08873 64.8438 2.43164Z" fill="url(#paint0_linear_1_64278)"/>
<path d="M49.4434 39.0684H8.91602C7.5731 39.0684 6.48438 37.9796 6.48438 36.6367C6.48438 35.2938 7.5731 34.2051 8.91602 34.2051H49.4434C50.7863 34.2051 51.875 35.2938 51.875 36.6367C51.875 37.9796 50.7863 39.0684 49.4434 39.0684ZM28.3691 27.7207H55.9277C57.2706 27.7207 58.3594 26.632 58.3594 25.2891C58.3594 23.9461 57.2706 22.8574 55.9277 22.8574H28.3691C27.0262 22.8574 25.9375 23.9461 25.9375 25.2891C25.9375 26.632 27.0262 27.7207 28.3691 27.7207ZM18.6426 16.2109V0C17.9977 0 17.3793 0.256295 16.9232 0.712309L0.712309 16.9232C0.256295 17.3793 0 17.9977 0 18.6426H16.2109C17.5539 18.6426 18.6426 17.5539 18.6426 16.2109ZM28.3691 16.373H55.9277C57.2706 16.373 58.3594 15.2843 58.3594 13.9414C58.3594 12.5985 57.2706 11.5098 55.9277 11.5098H28.3691C27.0262 11.5098 25.9375 12.5985 25.9375 13.9414C25.9375 15.2843 27.0262 16.373 28.3691 16.373ZM31.6113 66.627C30.2684 66.627 29.1797 67.7157 29.1797 69.0586C29.1797 70.4015 30.2684 71.4902 31.6113 71.4902C32.9542 71.4902 34.043 70.4015 34.043 69.0586C34.043 67.7157 32.9542 66.627 31.6113 66.627ZM21.8848 66.627C20.5419 66.627 19.4531 67.7157 19.4531 69.0586C19.4531 70.4015 20.5419 71.4902 21.8848 71.4902C23.2277 71.4902 24.3164 70.4015 24.3164 69.0586C24.3164 67.7157 23.2277 66.627 21.8848 66.627ZM12.1582 66.627C10.8153 66.627 9.72656 67.7157 9.72656 69.0586C9.72656 70.4015 10.8153 71.4902 12.1582 71.4902C13.5011 71.4902 14.5898 70.4015 14.5898 69.0586C14.5898 67.7157 13.5011 66.627 12.1582 66.627ZM76.5156 70.8418V68.4102C76.5156 64.829 73.6124 61.9258 70.0312 61.9258H69.1384L71.7404 41.1093C72.2954 36.6685 68.8328 32.7461 64.3574 32.7461C59.8821 32.7461 56.4194 36.6685 56.9745 41.1093L59.5765 61.9258H58.6836C55.1024 61.9258 52.1992 64.829 52.1992 68.4102V70.8418C48.6181 70.8418 45.7148 73.745 45.7148 77.3262V80.5684C45.7148 81.9113 46.8036 83 48.1465 83H80.5684C81.9113 83 83 81.9113 83 80.5684V77.3262C83 73.745 80.0968 70.8418 76.5156 70.8418ZM21.4427 61.0515L30.0885 52.4057C31.0381 51.4561 31.0381 49.9166 30.0885 48.9669C29.1388 48.0173 27.5993 48.0173 26.6496 48.9669L19.7232 55.8934L17.1197 53.2899C16.1701 52.3403 14.6305 52.3403 13.6809 53.2899C12.7313 54.2395 12.7313 55.7791 13.6809 56.7287L18.0039 61.0517C18.9535 62.0012 20.4931 62.0012 21.4427 61.0515Z" fill="url(#paint1_linear_1_64278)" fill-opacity="0.8"/>
</g>
<defs>
<linearGradient id="paint0_linear_1_64278" x1="32.4219" y1="0" x2="32.4219" y2="83" gradientUnits="userSpaceOnUse">
<stop stop-color="#9E71FF"/>
<stop offset="1" stop-color="#7239EA"/>
</linearGradient>
<linearGradient id="paint1_linear_1_64278" x1="69.7376" y1="-68.3063" x2="145.409" y2="4.43638" gradientUnits="userSpaceOnUse">
<stop offset="0.015625" stop-color="#04C8C8"/>
<stop offset="0.32905" stop-color="#7CFFFF"/>
<stop offset="0.479167" stop-color="#7CFFFF"/>
<stop offset="0.623016" stop-color="#7CFFFF"/>
<stop offset="1" stop-color="#04C8C8"/>
</linearGradient>
<clipPath id="clip0_1_64278">
<rect width="83" height="83" fill="white"/>
</clipPath>
</defs>
</svg>
